<?xml version="1.0" standalone="no"?>
<!DOCTYPE svg PUBLIC "-//W3C//DTD SVG 20010904//EN"
 "http://www.w3.org/TR/2001/REC-SVG-20010904/DTD/svg10.dtd">
<svg version="1.0" xmlns="http://www.w3.org/2000/svg"
 width="142.000000pt" height="142.000000pt" viewBox="0 0 142.000000 142.000000"
 preserveAspectRatio="xMidYMid meet">
<metadata>
Created by potrace 1.11, written by Peter Selinger 2001-2013
</metadata>
<g transform="translate(0.000000,142.000000) scale(0.100000,-0.100000)"
fill="#000000" stroke="none">
<path d="M683 1405 c-15 -11 -17 -30 -18 -131 0 -70 -5 -119 -10 -119 -6 0
-58 33 -117 73 -59 39 -116 72 -127 72 -45 0 -46 -9 -44 -521 2 -448 3 -484
19 -496 23 -17 39 -16 58 3 14 13 16 53 16 279 l0 263 95 66 c52 36 98 66 103
66 4 0 7 -37 7 -82 l0 -83 -36 -20 c-20 -11 -44 -26 -53 -34 -32 -27 -59 -93
-59 -147 -1 -68 40 -137 98 -168 22 -11 42 -22 45 -24 2 -2 5 -85 5 -185 0
-100 4 -188 8 -194 12 -19 65 -16 75 5 5 9 10 85 10 167 0 83 1 162 1 177 1
22 9 31 34 42 42 17 103 87 111 128 19 95 -11 174 -83 219 -25 15 -51 32 -56
37 -10 8 -12 149 -2 158 6 6 183 -111 193 -128 4 -6 8 -127 8 -268 1 -270 4
-290 47 -290 43 0 44 12 44 524 0 521 1 505 -48 506 -10 0 -67 -33 -125 -73
-59 -40 -111 -76 -117 -79 -6 -4 -9 33 -9 105 1 61 -2 121 -6 133 -10 27 -43
36 -67 19z m-92 -325 l36 -26 -77 -52 c-42 -29 -79 -52 -83 -52 -4 0 -7 50 -7
110 l0 111 48 -32 c26 -18 63 -45 83 -59z m373 -19 c1 -51 -2 -97 -5 -103 -4
-6 -39 12 -84 42 -50 34 -74 55 -67 62 22 22 138 97 146 94 5 -1 10 -44 10
-95z"/>
</g>
</svg>
