<?xml version="1.0" encoding="UTF-8"?>
<svg width="150px" height="150px" viewBox="0 0 150 150" version="1.1" xmlns="http://www.w3.org/2000/svg" xmlns:xlink="http://www.w3.org/1999/xlink">
    <!-- Generator: Sketch 52.4 (67378) - http://www.bohemiancoding.com/sketch -->
    <title>AI</title>
    <desc>Created with Sketch.</desc>
    <g id="Page-1" stroke="none" stroke-width="1" fill="none" fill-rule="evenodd">
        <g id="Greyscale" transform="translate(-337.000000, -247.000000)">
            <g id="AI" transform="translate(337.000000, 247.000000)">
                <g id="Adobe_Illustrator_CC_icon" transform="translate(0.000000, 2.000000)">
                    <polygon id="Path" fill="#261300" points="6.25 6.23931624 143.75 6.23931624 143.75 139.760684 6.25 139.760684"></polygon>
                    <path d="M0,0 L0,146 L150,146 L150,0 L0,0 Z M6.25,6.23931624 L143.75,6.23931624 L143.75,139.760684 L6.25,139.760684 L6.25,6.23931624 Z" id="Shape" fill="#FF7C00" fill-rule="nonzero"></path>
                    <path d="M52.0625,82.6709402 L47.125,101.388889 C47,101.888034 46.8125,102.012821 46.1875,102.012821 L37,102.012821 C36.375,102.012821 36.25,101.825641 36.375,101.076923 L54.125,39.0581197 C54.4375,37.9350427 54.625,36.9367521 54.75,33.8794872 C54.75,33.442735 54.9375,33.2555556 55.25,33.2555556 L68.375,33.2555556 C68.8125,33.2555556 69,33.3803419 69.125,33.8794872 L89,101.201709 C89.125,101.700855 89,102.012821 88.5,102.012821 L78.125,102.012821 C77.625,102.012821 77.3125,101.888034 77.1875,101.451282 L72,82.6709402 L52.0625,82.6709402 Z M69.4375,72.5632479 C67.6875,65.6376068 63.5625,50.5384615 62,43.2384615 L61.875,43.2384615 C60.5625,50.5384615 57.25,62.8923077 54.625,72.5632479 L69.4375,72.5632479 Z M97.5625,37.8726496 C97.5625,33.8794872 100.375,31.508547 103.9375,31.508547 C107.75,31.508547 110.3125,34.0666667 110.3125,37.8726496 C110.3125,41.9905983 107.625,44.2367521 103.8125,44.2367521 C100.1875,44.2367521 97.5625,41.9905983 97.5625,37.8726496 Z M98.3125,52.0358974 C98.3125,51.5367521 98.5,51.2871795 99.0625,51.2871795 L108.875,51.2871795 C109.375,51.2871795 109.625,51.474359 109.625,52.0358974 L109.625,101.264103 C109.625,101.763248 109.5,102.012821 108.875,102.012821 L99.1875,102.012821 C98.5625,102.012821 98.375,101.700855 98.375,101.201709 L98.375,52.0358974 L98.3125,52.0358974 Z" id="Shape" fill="#FF7C00" fill-rule="nonzero"></path>
                </g>
                <rect id="Rectangle-Copy-7" fill="#FFFFFF" fill-rule="nonzero" style="mix-blend-mode: color;" x="0" y="0" width="150" height="150"></rect>
            </g>
        </g>
    </g>
</svg>