<?xml version="1.0" encoding="UTF-8"?>
<svg width="150px" height="150px" viewBox="0 0 150 150" version="1.1" xmlns="http://www.w3.org/2000/svg" xmlns:xlink="http://www.w3.org/1999/xlink">
    <!-- Generator: Sketch 52.4 (67378) - http://www.bohemiancoding.com/sketch -->
    <title>AWS</title>
    <desc>Created with Sketch.</desc>
    <g id="Page-1" stroke="none" stroke-width="1" fill="none" fill-rule="evenodd">
        <g id="Greyscale" transform="translate(-817.000000, -249.000000)">
            <g id="AWS" transform="translate(817.000000, 249.000000)">
                <g id="aws" transform="translate(0.000000, 30.000000)">
                    <path d="M42.4172185,32.3366667 C42.4172185,34.1661111 42.615894,35.6494444 42.9635762,36.7372222 C43.3609272,37.825 43.8576159,39.0116667 44.5529801,40.2972222 C44.8013245,40.6927778 44.9006623,41.0883333 44.9006623,41.4344444 C44.9006623,41.9288889 44.602649,42.4233333 43.9569536,42.9177778 L40.8278146,44.9944444 C40.3807947,45.2911111 39.9337748,45.4394444 39.5364238,45.4394444 C39.0397351,45.4394444 38.5430464,45.1922222 38.0463576,44.7472222 C37.3509934,44.0055556 36.7549669,43.2144444 36.2582781,42.4233333 C35.7615894,41.5827778 35.2649007,40.6433333 34.718543,39.5061111 C30.8443709,44.055 25.9768212,46.3294444 20.115894,46.3294444 C15.9437086,46.3294444 12.615894,45.1427778 10.1821192,42.7694444 C7.74834437,40.3961111 6.50662252,37.2316667 6.50662252,33.2761111 C6.50662252,29.0733333 7.99668874,25.6616667 11.0264901,23.0905556 C14.0562914,20.5194444 18.0794702,19.2338889 23.1953642,19.2338889 C24.884106,19.2338889 26.6225166,19.3822222 28.4602649,19.6294444 C30.2980132,19.8766667 32.1854305,20.2722222 34.1721854,20.7172222 L34.1721854,17.1077778 C34.1721854,13.35 33.3774834,10.7294444 31.8377483,9.19666667 C30.2483444,7.66388889 27.5662252,6.92222222 23.7417219,6.92222222 C22.0033113,6.92222222 20.2152318,7.12 18.3774834,7.565 C16.5397351,8.01 14.7516556,8.55388889 13.013245,9.24611111 C12.218543,9.59222222 11.6225166,9.79 11.2748344,9.88888889 C10.9271523,9.98777778 10.6788079,10.0372222 10.4801325,10.0372222 C9.78476821,10.0372222 9.43708609,9.54277778 9.43708609,8.50444444 L9.43708609,6.08166667 C9.43708609,5.29055556 9.53642384,4.69722222 9.78476821,4.35111111 C10.0331126,4.005 10.4801325,3.65888889 11.1754967,3.31277778 C12.9139073,2.42277778 15,1.68111111 17.4337748,1.08777778 C19.8675497,0.445 22.4503311,0.148333333 25.1821192,0.148333333 C31.0927152,0.148333333 35.4139073,1.48333333 38.1953642,4.15333333 C40.9271523,6.82333333 42.3178808,10.8777778 42.3178808,16.3166667 L42.3178808,32.3366667 L42.4172185,32.3366667 Z M22.2516556,39.8522222 C23.8907285,39.8522222 25.5794702,39.5555556 27.3675497,38.9622222 C29.1556291,38.3688889 30.7450331,37.2811111 32.0860927,35.7977778 C32.8807947,34.8583333 33.4768212,33.82 33.7748344,32.6333333 C34.0728477,31.4466667 34.2715232,30.0127778 34.2715232,28.3316667 L34.2715232,26.255 C32.8311258,25.9088889 31.2913907,25.6122222 29.7019868,25.4144444 C28.1125828,25.2166667 26.5728477,25.1177778 25.0331126,25.1177778 C21.705298,25.1177778 19.2715232,25.7605556 17.6324503,27.0955556 C15.9933775,28.4305556 15.1986755,30.3094444 15.1986755,32.7816667 C15.1986755,35.1055556 15.794702,36.8361111 17.0364238,38.0227778 C18.2284768,39.2588889 19.9668874,39.8522222 22.2516556,39.8522222 Z M62.1357616,45.1922222 C61.2417219,45.1922222 60.6456954,45.0438889 60.2483444,44.6977778 C59.8509934,44.4011111 59.5033113,43.7088889 59.205298,42.7694444 L47.5331126,4.54888889 C47.2350993,3.56 47.0860927,2.91722222 47.0860927,2.57111111 C47.0860927,1.78 47.4834437,1.335 48.2781457,1.335 L53.1456954,1.335 C54.089404,1.335 54.7350993,1.48333333 55.0827815,1.82944444 C55.4801325,2.12611111 55.7781457,2.81833333 56.0761589,3.75777778 L64.4205298,36.49 L72.1688742,3.75777778 C72.4172185,2.76888889 72.7152318,2.12611111 73.1125828,1.82944444 C73.5099338,1.53277778 74.205298,1.335 75.0993377,1.335 L79.0728477,1.335 C80.0165563,1.335 80.6622517,1.48333333 81.0596026,1.82944444 C81.4569536,2.12611111 81.8046358,2.81833333 82.0033113,3.75777778 L89.8509934,36.8855556 L98.4437086,3.75777778 C98.7417219,2.76888889 99.089404,2.12611111 99.4370861,1.82944444 C99.8344371,1.53277778 100.480132,1.335 101.374172,1.335 L105.993377,1.335 C106.788079,1.335 107.235099,1.73055556 107.235099,2.57111111 C107.235099,2.81833333 107.18543,3.06555556 107.135762,3.36222222 C107.086093,3.65888889 106.986755,4.05444444 106.788079,4.59833333 L94.8178808,42.8188889 C94.5198675,43.8077778 94.1721854,44.4505556 93.7748344,44.7472222 C93.3774834,45.0438889 92.7317881,45.2416667 91.8874172,45.2416667 L87.615894,45.2416667 C86.6721854,45.2416667 86.0264901,45.0933333 85.6291391,44.7472222 C85.2317881,44.4011111 84.884106,43.7583333 84.6854305,42.7694444 L76.986755,10.8777778 L69.3377483,42.72 C69.089404,43.7088889 68.7913907,44.3516667 68.3940397,44.6977778 C67.9966887,45.0438889 67.3013245,45.1922222 66.4072848,45.1922222 L62.1357616,45.1922222 Z M125.960265,46.5272222 C123.377483,46.5272222 120.794702,46.2305556 118.311258,45.6372222 C115.827815,45.0438889 113.890728,44.4011111 112.599338,43.6594444 C111.804636,43.2144444 111.258278,42.72 111.059603,42.275 C110.860927,41.83 110.761589,41.3355556 110.761589,40.8905556 L110.761589,38.3688889 C110.761589,37.3305556 111.15894,36.8361111 111.903974,36.8361111 C112.201987,36.8361111 112.5,36.8855556 112.798013,36.9844444 C113.096026,37.0833333 113.543046,37.2811111 114.039735,37.4788889 C115.728477,38.2205556 117.566225,38.8138889 119.503311,39.2094444 C121.490066,39.605 123.427152,39.8027778 125.413907,39.8027778 C128.543046,39.8027778 130.976821,39.2588889 132.665563,38.1711111 C134.354305,37.0833333 135.248344,35.5011111 135.248344,33.4738889 C135.248344,32.0894444 134.801325,30.9522222 133.907285,30.0127778 C133.013245,29.0733333 131.324503,28.2327778 128.890728,27.4416667 L121.688742,25.2166667 C118.062914,24.0794444 115.380795,22.3983333 113.741722,20.1733333 C112.102649,17.9977778 111.258278,15.575 111.258278,13.0038889 C111.258278,10.9272222 111.705298,9.09777778 112.599338,7.51555556 C113.493377,5.93333333 114.68543,4.54888889 116.175497,3.46111111 C117.665563,2.32388889 119.354305,1.48333333 121.34106,0.89 C123.327815,0.296666667 125.413907,0.0494444444 127.599338,0.0494444444 C128.692053,0.0494444444 129.834437,0.0988888889 130.927152,0.247222222 C132.069536,0.395555556 133.112583,0.593333333 134.155629,0.791111111 C135.149007,1.03833333 136.092715,1.28555556 136.986755,1.58222222 C137.880795,1.87888889 138.576159,2.17555556 139.072848,2.47222222 C139.768212,2.86777778 140.264901,3.26333333 140.562914,3.70833333 C140.860927,4.10388889 141.009934,4.64777778 141.009934,5.34 L141.009934,7.66388889 C141.009934,8.70222222 140.612583,9.24611111 139.86755,9.24611111 C139.470199,9.24611111 138.824503,9.04833333 137.980132,8.65277778 C135.149007,7.36722222 131.970199,6.72444444 128.443709,6.72444444 C125.612583,6.72444444 123.377483,7.16944444 121.837748,8.10888889 C120.298013,9.04833333 119.503311,10.4822222 119.503311,12.5094444 C119.503311,13.8938889 120,15.0805556 120.993377,16.02 C121.986755,16.9594444 123.824503,17.8988889 126.456954,18.7394444 L133.509934,20.9644444 C137.086093,22.1016667 139.668874,23.6838889 141.208609,25.7111111 C142.748344,27.7383333 143.493377,30.0622222 143.493377,32.6333333 C143.493377,34.7594444 143.046358,36.6877778 142.201987,38.3688889 C141.307947,40.05 140.115894,41.5333333 138.576159,42.72 C137.036424,43.9561111 135.198675,44.8461111 133.062914,45.4888889 C130.827815,46.1811111 128.493377,46.5272222 125.960265,46.5272222 Z" id="Shape" fill="#FFFFFF" fill-rule="nonzero"></path>
                    <g id="Group" transform="translate(0.000000, 55.377778)" fill="#FF9900">
                        <path d="M135.347682,15.1794444 C119.006623,27.1944444 95.2649007,33.5727778 74.8509934,33.5727778 C46.2417219,33.5727778 20.4635762,23.0411111 0.993377483,5.53777778 C-0.546357616,4.15333333 0.844370861,2.27444444 2.68211921,3.36222222 C23.7417219,15.5255556 49.718543,22.8927778 76.589404,22.8927778 C94.718543,22.8927778 114.635762,19.135 132.963576,11.4216667 C135.695364,10.1855556 138.029801,13.2016667 135.347682,15.1794444 Z" id="Path"></path>
                        <path d="M142.152318,7.46611111 C140.066225,4.79611111 128.344371,6.18055556 123.029801,6.82333333 C121.440397,7.02111111 121.192053,5.63666667 122.63245,4.59833333 C131.970199,-1.92833333 147.317881,-0.0494444444 149.10596,2.12611111 C150.89404,4.35111111 148.609272,19.6294444 139.86755,26.9472222 C138.52649,28.0844444 137.235099,27.4911111 137.831126,26.0077778 C139.817881,21.1127778 144.238411,10.0866667 142.152318,7.46611111 Z" id="Path"></path>
                    </g>
                </g>
                <rect id="Rectangle-Copy-6" fill="#FFFFFF" fill-rule="nonzero" style="mix-blend-mode: color;" x="0" y="0" width="150" height="150"></rect>
            </g>
        </g>
    </g>
</svg>