<?xml version="1.0" encoding="UTF-8"?>
<svg width="180px" height="180px" viewBox="0 0 180 180" version="1.1" xmlns="http://www.w3.org/2000/svg" xmlns:xlink="http://www.w3.org/1999/xlink">
    <!-- Generator: Sketch 61.2 (89653) - https://sketch.com -->
    <title>CARBOS</title>
    <desc>Created with Sketch.</desc>
    <defs>
        <radialGradient cx="75%" cy="6.69487307%" fx="75%" fy="6.69487307%" r="121.822896%" gradientTransform="translate(0.750000,0.066949),scale(1.000000,0.991237),rotate(106.828764),translate(-0.750000,-0.066949)" id="radialGradient-1">
            <stop stop-color="#FF5544" offset="0%"></stop>
            <stop stop-color="#FF4340" offset="10%"></stop>
            <stop stop-color="#FF1E38" offset="33%"></stop>
            <stop stop-color="#FF0833" offset="51%"></stop>
            <stop stop-color="#FF0031" offset="100%"></stop>
        </radialGradient>
        <ellipse id="path-2" cx="31" cy="31.2740489" rx="31" ry="31.2740489"></ellipse>
        <radialGradient cx="37.3965811%" cy="16.6101507%" fx="37.3965811%" fy="16.6101507%" r="86.6567109%" gradientTransform="translate(0.373966,0.166102),scale(1.000000,0.988305),rotate(65.017665),translate(-0.373966,-0.166102)" id="radialGradient-4">
            <stop stop-color="#5D5D5D" offset="0%"></stop>
            <stop stop-color="#3C3C3C" offset="15.2682274%"></stop>
            <stop stop-color="#2D2D2D" offset="30%"></stop>
            <stop stop-color="#252525" offset="51%"></stop>
            <stop stop-color="#232323" offset="77.2273762%"></stop>
            <stop stop-color="#333333" offset="92.5864089%"></stop>
            <stop stop-color="#222222" offset="100%"></stop>
        </radialGradient>
        <ellipse id="path-5" cx="31" cy="31.2740489" rx="31" ry="31.2740489"></ellipse>
        <radialGradient cx="37.3965811%" cy="16.6101507%" fx="37.3965811%" fy="16.6101507%" r="86.7378618%" gradientTransform="translate(0.373966,0.166102),scale(1.000000,0.987179),rotate(65.042639),translate(-0.373966,-0.166102)" id="radialGradient-7">
            <stop stop-color="#5D5D5D" offset="0%"></stop>
            <stop stop-color="#3C3C3C" offset="15.2682274%"></stop>
            <stop stop-color="#2D2D2D" offset="30%"></stop>
            <stop stop-color="#252525" offset="51%"></stop>
            <stop stop-color="#232323" offset="77.2273762%"></stop>
            <stop stop-color="#333333" offset="92.5864089%"></stop>
            <stop stop-color="#222222" offset="100%"></stop>
        </radialGradient>
    </defs>
    <g id="Page-1" stroke="none" stroke-width="1" fill="none" fill-rule="evenodd">
        <g id="Artboard" transform="translate(-7113.000000, -1181.000000)">
            <g id="CARBOS" transform="translate(7113.000000, 1181.000000)">
                <rect id="Rectangle-Copy" fill="#FAFAFA" fill-rule="nonzero" x="0" y="0" width="180" height="180" rx="64"></rect>
                <g id="Group-4" transform="translate(24.000000, 32.000000)">
                    <g id="logo-reflect" transform="translate(4.000000, 0.000000)">
                        <g id="Oval" transform="translate(93.000000, 38.500000) scale(-1, 1) translate(-93.000000, -38.500000) translate(62.000000, 7.000000)">
                            <mask id="mask-3" fill="white">
                                <use xlink:href="#path-2"></use>
                            </mask>
                            <use id="Mask" fill="url(#radialGradient-1)" fill-rule="nonzero" xlink:href="#path-2"></use>
                            <ellipse fill-opacity="0.200000003" fill="url(#radialGradient-4)" fill-rule="nonzero" mask="url(#mask-3)" cx="31.2751479" cy="31.0884463" rx="31.6420118" ry="32.0164596"></ellipse>
                        </g>
                        <g id="Oval-Copy" transform="translate(31.000000, 38.500000) scale(-1, 1) translate(-31.000000, -38.500000) translate(0.000000, 7.000000)">
                            <mask id="mask-6" fill="white">
                                <use xlink:href="#path-5"></use>
                            </mask>
                            <use id="Mask" fill="url(#radialGradient-1)" fill-rule="nonzero" xlink:href="#path-5"></use>
                            <ellipse id="Oval" fill-opacity="0.200000003" fill="url(#radialGradient-4)" fill-rule="nonzero" mask="url(#mask-6)" cx="31.2751479" cy="31.0884463" rx="31.6420118" ry="32.0164596"></ellipse>
                        </g>
                        <ellipse id="Oval" fill="url(#radialGradient-7)" fill-rule="nonzero" cx="62.5" cy="39" rx="38.5" ry="39"></ellipse>
                        <path d="M79,26.2144597 L75.968697,28.5450555 C72.6624186,24.1989362 67.4932964,21.6947511 62.0494485,21.8018651 C57.5740532,21.7415914 53.2657308,23.5076449 50.1098265,26.6961162 C46.8377931,29.8100045 45.0217482,34.16384 45.10663,38.6909157 C44.9993237,43.1595743 46.7772828,47.465584 50.0015657,50.5458795 C53.2877472,53.7276161 57.7117838,55.4443567 62.2737031,55.3080636 C67.5769687,55.3935276 72.6256376,53.0279304 75.968697,48.8911565 L79,51.2217523 C77.1089278,53.738713 74.6132918,55.7326877 71.746525,57.0171671 C68.6944404,58.3644904 65.3906643,59.0399543 62.0571814,58.9981735 C55.8708488,58.9981735 50.8186771,57.0404731 46.9006664,53.1250722 C42.9826558,49.2096713 41.0159175,44.2584501 41.0004517,38.2714085 C40.9763225,34.6712976 41.9193586,31.1313173 43.730171,28.0245558 C45.5309579,24.9118411 48.1537684,22.3602594 51.3084285,20.6521045 C54.5024974,18.8933811 58.0901002,17.9816406 61.732399,18.002994 C65.1864555,17.9471942 68.6088319,18.6720024 71.746525,20.1238361 C74.6458033,21.4930985 77.1442095,23.5909691 79,26.2144597 L79,26.2144597 Z" id="Shape" fill="#FFFFFF" fill-rule="nonzero"></path>
                    </g>
                    <text id="carbos" font-family="RegencieLight, Regencie" font-size="35" font-weight="300" letter-spacing="0.486111111" fill="#222222">
                        <tspan x="8.99666667" y="113">carbos</tspan>
                    </text>
                </g>
            </g>
        </g>
    </g>
</svg>