<?xml version="1.0" encoding="UTF-8"?>
<svg width="150px" height="150px" viewBox="0 0 150 150" version="1.1" xmlns="http://www.w3.org/2000/svg" xmlns:xlink="http://www.w3.org/1999/xlink">
    <!-- Generator: Sketch 52.4 (67378) - http://www.bohemiancoding.com/sketch -->
    <title>DOCKER</title>
    <desc>Created with Sketch.</desc>
    <defs>
        <path d="M24.0234375,0 L24.0234375,26.9655172 L11.1328125,26.9655172 L11.1328125,40.4482759 L0.340275586,40.4482759 C0.294466992,40.8385103 0.257374219,41.2296129 0.219726562,41.6206897 C-0.454782422,48.9664266 0.827005078,55.7409752 3.77197266,61.5334052 L4.76074219,63.3103448 C5.35336113,64.3753538 6.04467246,65.3755341 6.77490234,66.3512931 C7.5042334,67.3258503 7.76262656,67.8652428 8.22143555,68.512931 C16.0077604,77.2684176 27.6149256,81.4827586 41.015625,81.4827586 C70.6923984,81.4827586 95.8787051,68.3294541 107.025146,38.78125 C114.93341,39.593129 122.519344,37.5643478 125.976562,30.8125 C120.469553,27.6331102 113.39158,28.652167 109.313965,30.7025862 L120.117188,0 L77.9296875,26.9655172 L64.453125,26.9655172 L64.453125,0 L24.0234375,0 Z" id="path-1"></path>
        <path d="M24.0234375,0 L24.0234375,26.9655172 L11.1328125,26.9655172 L11.1328125,40.4482759 L0.340275586,40.4482759 C0.294466992,40.8385103 0.257374219,41.2296129 0.219726562,41.6206897 C-0.454782422,48.9664266 0.827005078,55.7409752 3.77197266,61.5334052 L4.76074219,63.3103448 C5.35336113,64.3753538 6.04467246,65.3755341 6.77490234,66.3512931 C7.5042334,67.3258503 7.76262656,67.8652428 8.22143555,68.512931 C16.0077604,77.2684176 27.6149256,81.4827586 41.015625,81.4827586 C70.6923984,81.4827586 95.8787051,68.3294541 107.025146,38.78125 C114.93341,39.593129 122.519344,37.5643478 125.976562,30.8125 C120.469553,27.6331102 113.39158,28.652167 109.313965,30.7025862 L120.117188,0 L77.9296875,26.9655172 L64.453125,26.9655172 L64.453125,0 L24.0234375,0 Z" id="path-3"></path>
        <path d="M24.0234375,0 L24.0234375,26.9655172 L11.1328125,26.9655172 L11.1328125,40.4482759 L0.340275586,40.4482759 C0.294466992,40.8385103 0.257374219,41.2296129 0.219726562,41.6206897 C-0.454782422,48.9664266 0.827005078,55.7409752 3.77197266,61.5334052 L4.76074219,63.3103448 C5.35336113,64.3753538 6.04467246,65.3755341 6.77490234,66.3512931 C7.5042334,67.3258503 7.76262656,67.8652428 8.22143555,68.512931 C16.0077604,77.2684176 27.6149256,81.4827586 41.015625,81.4827586 C70.6923984,81.4827586 95.8787051,68.3294541 107.025146,38.78125 C114.93341,39.593129 122.519344,37.5643478 125.976562,30.8125 C120.469553,27.6331102 113.39158,28.652167 109.313965,30.7025862 L120.117188,0 L77.9296875,26.9655172 L64.453125,26.9655172 L64.453125,0 L24.0234375,0 Z" id="path-5"></path>
        <path d="M24.0234375,0 L24.0234375,26.9655172 L11.1328125,26.9655172 L11.1328125,40.4482759 L0.340275586,40.4482759 C0.294466992,40.8385103 0.257374219,41.2296129 0.219726562,41.6206897 C-0.454782422,48.9664266 0.827005078,55.7409752 3.77197266,61.5334052 L4.76074219,63.3103448 C5.35336113,64.3753538 6.04467246,65.3755341 6.77490234,66.3512931 C7.5042334,67.3258503 7.76262656,67.8652428 8.22143555,68.512931 C16.0077604,77.2684176 27.6149256,81.4827586 41.015625,81.4827586 C70.6923984,81.4827586 95.8787051,68.3294541 107.025146,38.78125 C114.93341,39.593129 122.519344,37.5643478 125.976562,30.8125 C120.469553,27.6331102 113.39158,28.652167 109.313965,30.7025862 L120.117188,0 L77.9296875,26.9655172 L64.453125,26.9655172 L64.453125,0 L24.0234375,0 Z" id="path-7"></path>
        <path d="M24.0234375,0 L24.0234375,26.9655172 L11.1328125,26.9655172 L11.1328125,40.4482759 L0.340275586,40.4482759 C0.294466992,40.8385103 0.257374219,41.2296129 0.219726562,41.6206897 C-0.454782422,48.9664266 0.827005078,55.7409752 3.77197266,61.5334052 L4.76074219,63.3103448 C5.35336113,64.3753538 6.04467246,65.3755341 6.77490234,66.3512931 C7.5042334,67.3258503 7.76262656,67.8652428 8.22143555,68.512931 C16.0077604,77.2684176 27.6149256,81.4827586 41.015625,81.4827586 C70.6923984,81.4827586 95.8787051,68.3294541 107.025146,38.78125 C114.93341,39.593129 122.519344,37.5643478 125.976562,30.8125 C120.469553,27.6331102 113.39158,28.652167 109.313965,30.7025862 L120.117188,0 L77.9296875,26.9655172 L64.453125,26.9655172 L64.453125,0 L24.0234375,0 Z" id="path-9"></path>
    </defs>
    <g id="Page-1" stroke="none" stroke-width="1" fill="none" fill-rule="evenodd">
        <g id="Greyscale" transform="translate(-19.000000, -249.000000)">
            <g id="DOCKER" transform="translate(19.000000, 249.000000)">
                <g id="Docker_(container_engine)_logo" transform="translate(0.000000, 33.000000)">
                    <path d="M86.4185156,26.8084138 L99.8165625,26.8084138 L99.8165625,40.5108417 L106.591037,40.5108417 C109.719387,40.5108417 112.937168,39.9532593 115.899826,38.9489286 C117.355576,38.4550845 118.989574,37.7678448 120.425561,36.9035355 C118.534242,34.4330486 117.568652,31.313619 117.284344,28.2387762 C116.898363,24.0566238 117.741562,18.6130128 120.57085,15.339753 L121.979221,13.7100293 L123.657463,15.0597079 C127.882881,18.4560383 131.436439,23.2017348 132.062795,28.6117503 C137.150561,27.1145134 143.123883,27.4686469 147.608508,30.0581279 L149.448363,31.1202293 L148.479949,33.0111569 C144.68724,40.4169279 136.758264,42.7109735 129.006275,42.305034 C117.406383,71.2099517 92.1520898,84.8944828 61.5313828,84.8944828 C45.7117154,84.8944828 31.1974893,78.9780607 22.9324266,64.9359376 C22.4478457,64.0636734 22.032876,63.1515824 21.5927824,62.2557293 C18.7989539,56.0746448 17.8710252,49.3033338 18.500523,42.5376738 L18.6894352,40.5111143 L30.1462342,40.5111143 L30.1462342,26.8086864 L43.5442811,26.8086864 L43.5442811,13.4044795 L70.3403748,13.4044795 L70.3403748,0.000272586207 L86.4183064,0.000272586207 L86.4183064,26.8086864" id="path14" fill="#394D54"></path>
                    <g id="g16-Clipped" transform="translate(20.507812, 1.172414)">
                        <mask id="mask-2" fill="white">
                            <use xlink:href="#path-1"></use>
                        </mask>
                        <g id="path10"></g>
                        <g id="g16" mask="url(#mask-2)">
                            <g transform="translate(-2.343750, -13.482759)">
                                <g id="g18" transform="translate(53.906250, 0.000000)">
                                    <g id="g20" transform="translate(0.000000, 0.664759)">
                                        <polygon id="path22" fill="#00ACD3" points="0.503326172 0.475460338 12.1151484 0.475460338 12.1151484 12.0923052 0.503326172 12.0923052"></polygon>
                                        <polygon id="path24" fill="#20C2EF" points="0.503326172 13.8793188 12.1151484 13.8793188 12.1151484 25.4967923 0.503326172 25.4967923"></polygon>
                                        <path d="M1.92911133,11.124392 L1.92911133,1.44274592 M3.67042969,11.124392 L3.67042969,1.44274592 M5.42932031,11.124392 L5.42932031,1.44274592 M7.18914844,11.124392 L7.18914844,1.44274592 M8.94867187,11.124392 L8.94867187,1.44274592 M10.6896738,11.124392 L10.6896738,1.44274592" id="path26" stroke="#394D54" stroke-width="0.9140625" fill="#000000" fill-rule="nonzero"></path>
                                        <g id="use28" transform="translate(1.171875, 14.576621)" fill="#000000" fill-rule="nonzero" stroke="#394D54" stroke-width="0.9140625">
                                            <path d="M0.757236328,9.95197821 L0.757236328,0.270332124 M2.49855469,9.95197821 L2.49855469,0.270332124 M4.25744531,9.95197821 L4.25744531,0.270332124 M6.01727344,9.95197821 L6.01727344,0.270332124 M7.77679687,9.95197821 L7.77679687,0.270332124 M9.51779883,9.95197821 L9.51779883,0.270332124" id="path26"></path>
                                        </g>
                                    </g>
                                    <g id="use30" transform="translate(19.550391, 13.525347) scale(-1, 1) rotate(-180.000000) translate(-19.550391, -13.525347) translate(13.398047, 0.335692)">
                                        <g id="g20" transform="translate(0.000000, 0.078552)">
                                            <polygon id="path22" fill="#00ACD3" points="0.503326172 0.475460338 12.1151484 0.475460338 12.1151484 12.0923052 0.503326172 12.0923052"></polygon>
                                            <polygon id="path24" fill="#20C2EF" points="0.503326172 13.8793188 12.1151484 13.8793188 12.1151484 25.4967923 0.503326172 25.4967923"></polygon>
                                            <path d="M1.92911133,11.124392 L1.92911133,1.44274592 M3.67042969,11.124392 L3.67042969,1.44274592 M5.42932031,11.124392 L5.42932031,1.44274592 M7.18914844,11.124392 L7.18914844,1.44274592 M8.94867187,11.124392 L8.94867187,1.44274592 M10.6896738,11.124392 L10.6896738,1.44274592" id="path26" stroke="#394D54" stroke-width="0.9140625" fill="#000000" fill-rule="nonzero"></path>
                                            <g id="use28" transform="translate(1.171875, 14.576621)" fill="#000000" fill-rule="nonzero" stroke="#394D54" stroke-width="0.9140625">
                                                <path d="M0.757236328,9.95197821 L0.757236328,0.270332124 M2.49855469,9.95197821 L2.49855469,0.270332124 M4.25744531,9.95197821 L4.25744531,0.270332124 M6.01727344,9.95197821 L6.01727344,0.270332124 M7.77679687,9.95197821 L7.77679687,0.270332124 M9.51779883,9.95197821 L9.51779883,0.270332124" id="path26"></path>
                                            </g>
                                        </g>
                                    </g>
                                </g>
                                <g id="use32" transform="translate(0.314063, 26.808414)">
                                    <g id="g18">
                                        <g id="g20" transform="translate(0.000000, 0.664759)">
                                            <polygon id="path22" fill="#00ACD3" points="0.503326172 0.475460338 12.1151484 0.475460338 12.1151484 12.0923052 0.503326172 12.0923052"></polygon>
                                            <polygon id="path24" fill="#20C2EF" points="0.503326172 13.8793188 12.1151484 13.8793188 12.1151484 25.4967923 0.503326172 25.4967923"></polygon>
                                            <path d="M1.92911133,11.124392 L1.92911133,1.44274592 M3.67042969,11.124392 L3.67042969,1.44274592 M5.42932031,11.124392 L5.42932031,1.44274592 M7.18914844,11.124392 L7.18914844,1.44274592 M8.94867187,11.124392 L8.94867187,1.44274592 M10.6896738,11.124392 L10.6896738,1.44274592" id="path26" stroke="#394D54" stroke-width="0.9140625" fill="#000000" fill-rule="nonzero"></path>
                                            <g id="use28" transform="translate(1.171875, 14.576621)" fill="#000000" fill-rule="nonzero" stroke="#394D54" stroke-width="0.9140625">
                                                <path d="M0.757236328,9.95197821 L0.757236328,0.270332124 M2.49855469,9.95197821 L2.49855469,0.270332124 M4.25744531,9.95197821 L4.25744531,0.270332124 M6.01727344,9.95197821 L6.01727344,0.270332124 M7.77679687,9.95197821 L7.77679687,0.270332124 M9.51779883,9.95197821 L9.51779883,0.270332124" id="path26"></path>
                                            </g>
                                        </g>
                                        <g id="use30" transform="translate(19.550391, 13.525347) scale(-1, 1) rotate(-180.000000) translate(-19.550391, -13.525347) translate(13.398047, 0.335692)">
                                            <g id="g20" transform="translate(0.000000, 0.078552)">
                                                <polygon id="path22" fill="#00ACD3" points="0.503326172 0.475460338 12.1151484 0.475460338 12.1151484 12.0923052 0.503326172 12.0923052"></polygon>
                                                <polygon id="path24" fill="#20C2EF" points="0.503326172 13.8793188 12.1151484 13.8793188 12.1151484 25.4967923 0.503326172 25.4967923"></polygon>
                                                <path d="M1.92911133,11.124392 L1.92911133,1.44274592 M3.67042969,11.124392 L3.67042969,1.44274592 M5.42932031,11.124392 L5.42932031,1.44274592 M7.18914844,11.124392 L7.18914844,1.44274592 M8.94867187,11.124392 L8.94867187,1.44274592 M10.6896738,11.124392 L10.6896738,1.44274592" id="path26" stroke="#394D54" stroke-width="0.9140625" fill="#000000" fill-rule="nonzero"></path>
                                                <g id="use28" transform="translate(1.171875, 14.576621)" fill="#000000" fill-rule="nonzero" stroke="#394D54" stroke-width="0.9140625">
                                                    <path d="M0.757236328,9.95197821 L0.757236328,0.270332124 M2.49855469,9.95197821 L2.49855469,0.270332124 M4.25744531,9.95197821 L4.25744531,0.270332124 M6.01727344,9.95197821 L6.01727344,0.270332124 M7.77679687,9.95197821 L7.77679687,0.270332124 M9.51779883,9.95197821 L9.51779883,0.270332124" id="path26"></path>
                                                </g>
                                            </g>
                                        </g>
                                    </g>
                                </g>
                                <g id="use34" transform="translate(27.110156, 26.808414)">
                                    <g id="g18">
                                        <g id="g20" transform="translate(0.000000, 0.664759)">
                                            <polygon id="path22" fill="#00ACD3" points="0.503326172 0.475460338 12.1151484 0.475460338 12.1151484 12.0923052 0.503326172 12.0923052"></polygon>
                                            <polygon id="path24" fill="#20C2EF" points="0.503326172 13.8793188 12.1151484 13.8793188 12.1151484 25.4967923 0.503326172 25.4967923"></polygon>
                                            <path d="M1.92911133,11.124392 L1.92911133,1.44274592 M3.67042969,11.124392 L3.67042969,1.44274592 M5.42932031,11.124392 L5.42932031,1.44274592 M7.18914844,11.124392 L7.18914844,1.44274592 M8.94867187,11.124392 L8.94867187,1.44274592 M10.6896738,11.124392 L10.6896738,1.44274592" id="path26" stroke="#394D54" stroke-width="0.9140625" fill="#000000" fill-rule="nonzero"></path>
                                            <g id="use28" transform="translate(1.171875, 14.576621)" fill="#000000" fill-rule="nonzero" stroke="#394D54" stroke-width="0.9140625">
                                                <path d="M0.757236328,9.95197821 L0.757236328,0.270332124 M2.49855469,9.95197821 L2.49855469,0.270332124 M4.25744531,9.95197821 L4.25744531,0.270332124 M6.01727344,9.95197821 L6.01727344,0.270332124 M7.77679687,9.95197821 L7.77679687,0.270332124 M9.51779883,9.95197821 L9.51779883,0.270332124" id="path26"></path>
                                            </g>
                                        </g>
                                        <g id="use30" transform="translate(19.550391, 13.525347) scale(-1, 1) rotate(-180.000000) translate(-19.550391, -13.525347) translate(13.398047, 0.335692)">
                                            <g id="g20" transform="translate(0.000000, 0.078552)">
                                                <polygon id="path22" fill="#00ACD3" points="0.503326172 0.475460338 12.1151484 0.475460338 12.1151484 12.0923052 0.503326172 12.0923052"></polygon>
                                                <polygon id="path24" fill="#20C2EF" points="0.503326172 13.8793188 12.1151484 13.8793188 12.1151484 25.4967923 0.503326172 25.4967923"></polygon>
                                                <path d="M1.92911133,11.124392 L1.92911133,1.44274592 M3.67042969,11.124392 L3.67042969,1.44274592 M5.42932031,11.124392 L5.42932031,1.44274592 M7.18914844,11.124392 L7.18914844,1.44274592 M8.94867187,11.124392 L8.94867187,1.44274592 M10.6896738,11.124392 L10.6896738,1.44274592" id="path26" stroke="#394D54" stroke-width="0.9140625" fill="#000000" fill-rule="nonzero"></path>
                                                <g id="use28" transform="translate(1.171875, 14.576621)" fill="#000000" fill-rule="nonzero" stroke="#394D54" stroke-width="0.9140625">
                                                    <path d="M0.757236328,9.95197821 L0.757236328,0.270332124 M2.49855469,9.95197821 L2.49855469,0.270332124 M4.25744531,9.95197821 L4.25744531,0.270332124 M6.01727344,9.95197821 L6.01727344,0.270332124 M7.77679687,9.95197821 L7.77679687,0.270332124 M9.51779883,9.95197821 L9.51779883,0.270332124" id="path26"></path>
                                                </g>
                                            </g>
                                        </g>
                                    </g>
                                </g>
                                <g id="use36" transform="translate(53.906250, 26.808414)">
                                    <g id="g18">
                                        <g id="g20" transform="translate(0.000000, 0.664759)">
                                            <polygon id="path22" fill="#00ACD3" points="0.503326172 0.475460338 12.1151484 0.475460338 12.1151484 12.0923052 0.503326172 12.0923052"></polygon>
                                            <polygon id="path24" fill="#20C2EF" points="0.503326172 13.8793188 12.1151484 13.8793188 12.1151484 25.4967923 0.503326172 25.4967923"></polygon>
                                            <path d="M1.92911133,11.124392 L1.92911133,1.44274592 M3.67042969,11.124392 L3.67042969,1.44274592 M5.42932031,11.124392 L5.42932031,1.44274592 M7.18914844,11.124392 L7.18914844,1.44274592 M8.94867187,11.124392 L8.94867187,1.44274592 M10.6896738,11.124392 L10.6896738,1.44274592" id="path26" stroke="#394D54" stroke-width="0.9140625" fill="#000000" fill-rule="nonzero"></path>
                                            <g id="use28" transform="translate(1.171875, 14.576621)" fill="#000000" fill-rule="nonzero" stroke="#394D54" stroke-width="0.9140625">
                                                <path d="M0.757236328,9.95197821 L0.757236328,0.270332124 M2.49855469,9.95197821 L2.49855469,0.270332124 M4.25744531,9.95197821 L4.25744531,0.270332124 M6.01727344,9.95197821 L6.01727344,0.270332124 M7.77679687,9.95197821 L7.77679687,0.270332124 M9.51779883,9.95197821 L9.51779883,0.270332124" id="path26"></path>
                                            </g>
                                        </g>
                                        <g id="use30" transform="translate(19.550391, 13.525347) scale(-1, 1) rotate(-180.000000) translate(-19.550391, -13.525347) translate(13.398047, 0.335692)">
                                            <g id="g20" transform="translate(0.000000, 0.078552)">
                                                <polygon id="path22" fill="#00ACD3" points="0.503326172 0.475460338 12.1151484 0.475460338 12.1151484 12.0923052 0.503326172 12.0923052"></polygon>
                                                <polygon id="path24" fill="#20C2EF" points="0.503326172 13.8793188 12.1151484 13.8793188 12.1151484 25.4967923 0.503326172 25.4967923"></polygon>
                                                <path d="M1.92911133,11.124392 L1.92911133,1.44274592 M3.67042969,11.124392 L3.67042969,1.44274592 M5.42932031,11.124392 L5.42932031,1.44274592 M7.18914844,11.124392 L7.18914844,1.44274592 M8.94867187,11.124392 L8.94867187,1.44274592 M10.6896738,11.124392 L10.6896738,1.44274592" id="path26" stroke="#394D54" stroke-width="0.9140625" fill="#000000" fill-rule="nonzero"></path>
                                                <g id="use28" transform="translate(1.171875, 14.576621)" fill="#000000" fill-rule="nonzero" stroke="#394D54" stroke-width="0.9140625">
                                                    <path d="M0.757236328,9.95197821 L0.757236328,0.270332124 M2.49855469,9.95197821 L2.49855469,0.270332124 M4.25744531,9.95197821 L4.25744531,0.270332124 M6.01727344,9.95197821 L6.01727344,0.270332124 M7.77679687,9.95197821 L7.77679687,0.270332124 M9.51779883,9.95197821 L9.51779883,0.270332124" id="path26"></path>
                                                </g>
                                            </g>
                                        </g>
                                    </g>
                                </g>
                            </g>
                        </g>
                    </g>
                    <g id="path38-Clipped" transform="translate(20.507812, 1.172414)">
                        <mask id="mask-4" fill="white">
                            <use xlink:href="#path-3"></use>
                        </mask>
                        <g id="path10"></g>
                        <path d="M109.318441,30.7053115 C110.216871,23.7205115 104.991979,18.2338893 101.751604,15.6290315 C98.0176055,19.9480661 97.437375,31.2675988 103.295537,36.0333876 C100.026287,38.9386976 93.136957,41.5721253 86.0831895,41.5721253 L-0.5859375,41.5721253 C-1.2719209,48.9390044 -0.5859375,84.4137931 -0.5859375,84.4137931 L126.5625,84.4137931 L125.984432,30.8204138 C120.477422,27.641024 113.396039,28.6547744 109.318424,30.7051937" id="path38" fill="#17B5EB" mask="url(#mask-4)"></path>
                    </g>
                    <g id="path40-Clipped" transform="translate(20.507812, 1.172414)">
                        <mask id="mask-6" fill="white">
                            <use xlink:href="#path-5"></use>
                        </mask>
                        <g id="path10"></g>
                        <polyline id="path40" fill-opacity="0.17" fill="#000000" mask="url(#mask-6)" points="-0.5859375 51 -0.5859375 84.4137931 126.5625 84.4137931 126.5625 51"></polyline>
                    </g>
                    <g id="path42-Clipped" transform="translate(20.507812, 1.172414)">
                        <mask id="mask-8" fill="white">
                            <use xlink:href="#path-7"></use>
                        </mask>
                        <g id="path10"></g>
                        <path d="M44.6703281,81.4182583 C36.7369576,77.6517793 32.3822502,72.5318541 29.9593424,66.94226 L5.859375,68 L18.1640625,84.4137931 L44.6703281,81.4182583" id="path42" fill="#D4EDF1" mask="url(#mask-8)"></path>
                    </g>
                    <g id="path44-Clipped" transform="translate(20.507812, 1.172414)">
                        <mask id="mask-10" fill="white">
                            <use xlink:href="#path-9"></use>
                        </mask>
                        <g id="path10"></g>
                        <path d="M109.863281,30.4461207 L109.863281,30.4644397 C97.6399277,46.2270413 80.1075469,59.9967928 61.2854004,67.2306034 C44.4954902,73.6833755 29.8566615,73.7142803 19.7570801,68.53125 C18.6695391,67.9167176 17.603349,67.2348417 16.5344238,66.5894397 C9.13013496,61.4120603 4.95953555,52.8479047 5.31005859,41.5657328 L-0.5859375,41.5657328 L-0.5859375,84.4137931 L126.5625,84.4137931 L126.5625,28.137931 L111.914062,28.137931 L109.863281,30.4461207 Z" id="path44" fill-opacity="0.085" fill="#000000" mask="url(#mask-10)"></path>
                    </g>
                    <path d="M26.7333984,68.6045259 C35.0332928,69.0590179 43.891084,69.1405124 51.6174316,66.7176724" id="path46" stroke="#394D54" stroke-width="1.9921875" stroke-linecap="round"></path>
                    <path d="M59.865375,62.7002559 C59.865375,64.4700028 58.431276,65.9047617 56.662343,65.9047617 C54.8930965,65.9047617 53.4586822,64.4700028 53.4586822,62.7002559 C53.4586822,60.9305148 54.8930965,59.4951228 56.662343,59.4951228 C58.431276,59.4951228 59.865375,60.9305148 59.865375,62.7002559 Z" id="path48" fill="#D4EDF1"></path>
                    <path d="M57.4929914,60.5597331 C57.2133891,60.7214207 57.0241635,61.0243841 57.0241635,61.3709848 C57.0241635,61.8883769 57.44341,62.3071924 57.9605648,62.3071924 C58.3148537,62.3071924 58.6227012,62.1103441 58.7818008,61.8196207 C58.8941426,62.0905655 58.9565918,62.3881886 58.9565918,62.7002559 C58.9565918,63.9676821 57.9294979,64.9952441 56.662343,64.9952441 C55.3955021,64.9952441 54.3677824,63.9676821 54.3677824,62.7002559 C54.3677824,61.4322083 55.3955021,60.4043297 56.662343,60.4043297 C56.9554395,60.4043297 57.2350418,60.459609 57.4929914,60.5597331 Z" id="path50" fill="#394D54"></path>
                    <path d="M0,52.8537873 L149.019979,52.8537873 C145.775209,52.030292 138.753768,50.9179603 139.911715,46.6635996 C134.011822,53.4939352 119.783156,51.4554458 116.192262,48.0873707 C112.193408,53.8898282 88.9142285,51.6843168 87.290584,47.1640385 C82.2775078,53.0500071 66.7434082,53.0500071 61.7300215,47.1640385 C60.10575,51.6843168 36.8268826,53.8898282 32.8277197,48.0873707 C29.2368199,51.4554458 15.0094143,53.4939352 9.10889121,46.6635996 C10.2668408,50.9179603 3.24539748,52.030292 0,52.8537873" id="path52" fill="#394D54"></path>
                </g>
                <rect id="Rectangle-Copy-6" fill="#FFFFFF" fill-rule="nonzero" style="mix-blend-mode: color;" x="0" y="0" width="150" height="150"></rect>
            </g>
        </g>
    </g>
</svg>