<?xml version="1.0" encoding="UTF-8"?>
<svg width="180px" height="180px" viewBox="0 0 180 180" version="1.1" xmlns="http://www.w3.org/2000/svg" xmlns:xlink="http://www.w3.org/1999/xlink">
    <!-- Generator: Sketch 52.4 (67378) - http://www.bohemiancoding.com/sketch -->
    <title>FUTURE</title>
    <desc>Created with Sketch.</desc>
    <g id="Page-1" stroke="none" stroke-width="1" fill="none" fill-rule="evenodd">
        <g id="timeline" transform="translate(-592.000000, -730.000000)">
            <g id="FUTURE" transform="translate(592.000000, 730.000000)">
                <rect id="Rectangle-Copy" fill="#FAFAFA" fill-rule="nonzero" x="0" y="0" width="180" height="180" rx="64"></rect>
                <path d="M82.5234375,112.460938 C82.6015629,107.812477 83.1289014,104.140638 84.1054688,101.445312 C85.0820361,98.7499865 87.0742037,95.7617352 90.0820312,92.4804688 L97.7578125,84.5703125 C101.039079,80.8593564 102.679688,76.8750213 102.679688,72.6171875 C102.679688,68.5156045 101.605479,65.302746 99.4570312,62.9785156 C97.308583,60.6542853 94.1836143,59.4921875 90.0820312,59.4921875 C86.0976363,59.4921875 82.8945434,60.5468645 80.4726562,62.65625 C78.0507691,64.7656355 76.8398438,67.5976385 76.8398438,71.1523438 L66,71.1523438 C66.0781254,64.8241871 68.3339622,59.7168163 72.7675781,55.8300781 C77.201194,51.9433399 82.9726207,50 90.0820312,50 C97.4648807,50 103.216776,51.9824021 107.337891,55.9472656 C111.459005,59.9121292 113.519531,65.3515279 113.519531,72.265625 C113.519531,79.1015967 110.3555,85.8398105 104.027344,92.4804688 L97.640625,98.8085938 C94.7890482,101.972672 93.3632812,106.523408 93.3632812,112.460938 L82.5234375,112.460938 Z M82.0546875,131.035156 C82.0546875,129.277335 82.5917915,127.80274 83.6660156,126.611328 C84.7402397,125.419916 86.3320207,124.824219 88.4414062,124.824219 C90.5507918,124.824219 92.1523383,125.419916 93.2460938,126.611328 C94.3398492,127.80274 94.8867188,129.277335 94.8867188,131.035156 C94.8867188,132.792978 94.3398492,134.248041 93.2460938,135.400391 C92.1523383,136.55274 90.5507918,137.128906 88.4414062,137.128906 C86.3320207,137.128906 84.7402397,136.55274 83.6660156,135.400391 C82.5917915,134.248041 82.0546875,132.792978 82.0546875,131.035156 Z" id="?" fill="#424242"></path>
            </g>
        </g>
    </g>
</svg>