<?xml version="1.0" encoding="UTF-8"?>
<svg width="150px" height="150px" viewBox="0 0 150 150" version="1.1" xmlns="http://www.w3.org/2000/svg" xmlns:xlink="http://www.w3.org/1999/xlink">
    <!-- Generator: Sketch 52.4 (67378) - http://www.bohemiancoding.com/sketch -->
    <title>GULP</title>
    <desc>Created with Sketch.</desc>
    <g id="Page-1" stroke="none" stroke-width="1" fill="none" fill-rule="evenodd">
        <g id="Greyscale" transform="translate(-1135.000000, -55.000000)">
            <g id="GULP" transform="translate(1135.000000, 55.000000)">
                <g id="gulp" transform="translate(41.000000, 0.000000)" fill="#DA4648">
                    <path d="M33.6969143,118.421891 C24.9253029,118.421891 18.1474514,117.104145 14.8881143,116.318782 C12.6592686,115.781736 10.8695086,115.226036 9.50989714,114.655181 L13.8568457,122.082513 L15.5572343,145.289378 C15.5572343,147.891062 23.8213714,150 34.0155429,150 C44.2097143,150 52.4738514,147.891062 52.4738514,145.289378 L53.8202514,121.829922 L57.93328,114.63342 C56.56784,115.212047 54.7621486,115.77513 52.5053257,116.318782 C49.2459886,117.104145 42.4681371,118.421891 33.6969143,118.421891 Z M58.0743314,42.905829 C51.63648,43.8050518 43.0921829,44.3005181 34.0155429,44.3005181 C24.9389029,44.3005181 16.3946057,43.8050518 9.95675429,42.905829 C6.76774857,42.4604922 4.24475429,41.9351036 2.45771429,41.3452073 C2.03145143,41.2041451 1.30909714,40.963601 0.613942857,40.5804404 L4.60262857,77.2927461 C4.78797714,76.6604922 4.99430857,76.0290155 5.22317714,75.3998705 C5.69140571,74.1104922 6.23307429,72.8498705 6.84779429,71.6183938 C7.46290286,70.3873057 8.13241143,69.2234456 8.85632,68.1272021 C9.57984,67.0313472 10.3503771,66.0221503 11.1667657,65.1 C11.9835429,64.1782383 12.8213029,63.3854922 13.6816,62.7209845 C14.5415086,62.0572539 15.4095771,61.5380829 16.2858057,61.1642487 C17.1624229,60.7904145 18.0304914,60.6031088 18.8904,60.6031088 C19.8808686,60.6031088 20.8390857,60.8739637 21.7646629,61.4156736 C22.6898514,61.9569948 23.5548114,62.8340674 24.3607086,64.046114 C24.5456686,64.3169689 24.6630171,64.5909326 24.7115886,64.8680052 C24.7609371,65.1454663 24.7850286,65.4066062 24.7850286,65.6514249 C24.7850286,66.2316062 24.6463086,66.6897668 24.3688686,67.0247409 C24.0914286,67.3601036 23.76192,67.5275907 23.38112,67.5275907 C23.0321829,67.5275907 22.7085029,67.3437824 22.4093029,66.9765544 C22.1097143,66.6089378 21.7751543,66.0835492 21.4048457,65.4 C21.0562971,64.7809585 20.6727771,64.3332902 20.2538971,64.055829 C19.8346286,63.7787565 19.3803886,63.6400259 18.8904,63.6400259 C18.1284114,63.6400259 17.3147429,63.9559585 16.4493943,64.5878238 C15.5836571,65.2193005 14.7264686,66.0544041 13.8778286,67.0923575 C13.0284114,68.1306995 12.2147429,69.3167098 11.4364343,70.6515544 C10.6581257,71.9860104 9.96918857,73.3527202 9.3704,74.7516839 C8.77161143,76.1514249 8.296,77.5313472 7.94201143,78.8914508 C7.58802286,80.2515544 7.41122286,81.4733161 7.41122286,82.5563472 C7.41122286,82.9177461 7.43609143,83.2888601 7.48466286,83.6685233 C7.53401143,84.0493523 7.62610286,84.3940415 7.76249143,84.7037565 C7.89810286,85.0134715 8.08345143,85.2676166 8.31737143,85.4669689 C8.55168,85.667487 8.84816,85.7669689 9.2072,85.7669689 C9.61014857,85.7669689 10.0671086,85.6317358 10.5792457,85.3608808 C11.0906057,85.0908031 11.6213943,84.7356218 12.1708343,84.2976684 C12.7206629,83.8589378 13.2732114,83.3626943 13.82848,82.807772 C14.3841371,82.2536269 14.9009371,81.6928756 15.3796571,81.1251295 C15.8583771,80.5581606 16.2830857,80.0129534 16.6530057,79.4910622 C17.0233143,78.9687824 17.3007543,78.5141192 17.4861029,78.1270725 L19.00464,73.5816062 C19.1896,73.0919689 19.43168,72.7437824 19.7312686,72.5374352 C20.0304686,72.3310881 20.3382171,72.2277202 20.6541257,72.2277202 C20.8060571,72.2277202 20.9583771,72.2537565 21.1110857,72.3050518 C21.2637943,72.3567358 21.3994057,72.4375648 21.5194743,72.5467617 C21.6391543,72.6567358 21.7343543,72.7981865 21.8050743,72.9726684 C21.8757943,73.1463731 21.9111543,73.3496114 21.9111543,73.5816062 C21.9111543,74.2006477 21.8567543,74.7804404 21.7479543,75.3225389 C21.6391543,75.8646373 21.5004343,76.3927461 21.3314057,76.9088083 C21.1627657,77.4240933 20.9746971,77.9432642 20.7679771,78.465544 C20.5612571,78.9878238 20.3595886,79.5326425 20.1641371,80.1003886 C20.1206171,80.1648964 20.0417371,80.3673575 19.9271086,80.7089378 C19.8128686,81.0512953 19.6745371,81.4803109 19.5109486,81.9955959 C19.3477486,82.511658 19.17056,83.088342 18.98016,83.7268135 C18.7893714,84.365285 18.59392,85.0161917 18.39264,85.6803109 C18.1909714,86.3444301 17.9978514,86.9957254 17.8128914,87.6341969 C17.6275429,88.2722798 17.4612343,88.8493523 17.3147429,89.3654145 C17.1678629,89.8806995 17.0454629,90.3124352 16.9471543,90.6610104 C16.8492343,91.0091969 16.7893943,91.2151554 16.7676343,91.2804404 C16.7132343,91.4860104 16.6258057,91.715285 16.5065143,91.9663212 C16.3868343,92.2177461 16.2453943,92.4567358 16.0818057,92.6821244 C15.9186057,92.907513 15.7390857,93.0952073 15.5428571,93.2428756 C15.3470171,93.3909326 15.1457371,93.465544 14.9386286,93.465544 C14.5904686,93.465544 14.33712,93.3493523 14.1797486,93.1177461 C14.0216,92.8853627 13.9431086,92.4598446 13.9431086,91.8411917 L13.9431086,91.5703368 C13.9431086,91.4797927 13.94816,91.3826425 13.95904,91.2804404 C13.9695314,91.0737047 14.05152,90.686658 14.2042286,90.1189119 C14.3565486,89.551943 14.5387886,88.9107513 14.7513371,88.1949482 C14.9634971,87.4791451 15.1923657,86.7376943 15.4371657,85.9702073 C15.6815771,85.2031088 15.9022857,84.5168394 16.0985143,83.9106218 C15.5207086,84.5556995 14.8954971,85.1968912 14.2205486,85.8353627 C13.5452114,86.4734456 12.8539429,87.0474093 12.1467429,87.5564767 C11.4387657,88.0659326 10.7257371,88.4817358 10.0076571,88.8042746 C9.28918857,89.1264249 8.59792,89.2880829 7.93385143,89.2880829 C7.17186286,89.2880829 6.51595429,89.1202073 5.96573714,88.7848446 C5.86665143,88.7238342 5.77300571,88.655829 5.67974857,88.5882124 L7.89926857,111.860751 C8.47707429,113.309067 19.3547429,116.867487 33.6969143,116.867487 C48.0456914,116.867487 58.9276343,113.30557 59.4953371,111.85842 L62.6835657,84.1892487 C62.4197257,84.4313472 62.16288,84.6680052 61.9173029,84.8972798 C61.0026057,85.7479275 60.1395886,86.4796632 59.32864,87.0920984 C58.51808,87.7045337 57.7257829,88.1790155 56.9529143,88.513601 C56.1796571,88.8493523 55.3523886,89.0168394 54.47072,89.0168394 C53.6434514,89.0168394 53.0034743,88.8361399 52.5519543,88.4751295 C52.1004343,88.1145078 51.8742857,87.6182642 51.8742857,86.9860104 L51.8742857,86.8410622 C51.8742857,86.7959845 51.8797257,86.7408031 51.8909943,86.6762953 C51.9341257,86.2900259 52.1035429,85.8443005 52.3973029,85.3418394 C52.6910629,84.838601 53.0446629,84.3167098 53.4581029,83.7753886 C53.8719314,83.2336788 54.3125714,82.6853627 54.7808,82.130829 C55.2490286,81.5766839 55.6818971,81.0512953 56.0794057,80.5542746 C56.4765257,80.0588083 56.8056457,79.6041451 57.0667657,79.1910622 C57.3286629,78.7783679 57.4592229,78.4433938 57.4592229,78.1853627 C57.4592229,78.0306995 57.4044343,77.9082902 57.2960229,77.8173575 C57.1868343,77.7279793 57.0069257,77.6821244 56.7570743,77.6821244 C56.3214857,77.6821244 55.8722971,77.7952073 55.4102857,78.0205959 C54.9471086,78.2459845 54.4893714,78.5498705 54.0378514,78.9299223 C53.5863314,79.3103627 53.1453029,79.7459845 52.7151543,80.2356218 C52.2857829,80.7256477 51.8828343,81.2351036 51.5070857,81.7632124 C51.1313371,82.292487 50.7890057,82.8244819 50.4785371,83.3595855 C50.1680686,83.8946891 49.9042286,84.3878238 49.68624,84.838601 C49.62096,84.980829 49.52848,85.1809585 49.4084114,85.4382124 C49.2887314,85.6962435 49.1581714,85.9869171 49.0167314,86.3090674 C48.8749029,86.6316062 48.7253029,86.9638601 48.5675429,87.3046632 C48.4097829,87.6470207 48.2656229,87.9695596 48.1350629,88.2722798 C48.0045029,88.5753886 47.8875429,88.8454663 47.7845714,89.084456 C47.6804343,89.3226684 47.6069943,89.4874352 47.5634743,89.5779793 C47.5090743,89.6937824 47.4193143,89.9125648 47.2941943,90.2351036 C47.1690743,90.5576425 47.0245257,90.9349741 46.8617143,91.3667098 C46.6985143,91.7984456 46.5267657,92.2531088 46.3468571,92.7306995 C46.1681143,93.2071244 45.9986971,93.6590674 45.8409371,94.0845855 C45.6827886,94.509715 45.5440686,94.8839378 45.4247771,95.2064767 C45.3050971,95.5282383 45.22816,95.7477979 45.19552,95.8639896 C45.0871086,96.1993523 44.95888,96.5145078 44.8123886,96.8121762 C44.66512,97.1082902 44.4968686,97.3694301 44.30608,97.5955959 C44.11568,97.8209845 43.89808,98.0012953 43.6528914,98.1365285 C43.4077029,98.2725389 43.1329829,98.3397668 42.8287314,98.3397668 C42.4362743,98.3397668 42.1129829,98.2457254 41.8565257,98.0591969 C41.6012343,97.8722798 41.4730057,97.5139896 41.4730057,96.9858808 C41.4730057,96.7278497 41.5056457,96.463601 41.5709257,96.1931347 C41.6362057,95.9222798 41.7181943,95.6541451 41.8161143,95.390285 C41.9140343,95.1252591 42.0150629,94.8680052 42.1184229,94.6165803 C42.2213943,94.3647668 42.3169829,94.1234456 42.4036343,93.8910622 C42.9919314,92.6016839 43.59072,91.3091969 44.2,90.0128238 C44.80928,88.717228 45.3944686,87.434456 45.9555657,86.1641192 C46.0721371,85.8990933 46.1793829,85.6395078 46.2932343,85.3760363 C46.25904,85.409456 46.2256229,85.4444301 46.1922057,85.4770725 C45.4842286,86.1610104 44.7797486,86.763342 44.0776,87.2856218 C43.3750629,87.8079016 42.6783543,88.2237047 41.9878629,88.5334197 C41.2962057,88.8423575 40.6239771,88.9974093 39.9704,88.9974093 C39.52432,88.9974093 39.15168,88.9266839 38.85248,88.7848446 C38.5528914,88.6426166 38.31392,88.4490933 38.1340114,88.2046632 C37.9541029,87.9598446 37.8258743,87.6695596 37.7497143,87.3341969 C37.7240686,87.2195596 37.7081371,87.0998705 37.6914286,86.9805699 C37.5002514,87.1294041 37.30752,87.2743523 37.1132343,87.4119171 C36.4382857,87.888342 35.7742171,88.2722798 35.1210286,88.5621762 C34.4682286,88.8524611 33.8799314,88.9974093 33.35808,88.9974093 C32.8350629,88.9974093 32.4107429,88.8233161 32.0835657,88.4751295 C31.7571657,88.1273316 31.5943543,87.5339378 31.5943543,86.696114 C31.5943543,86.1023316 31.6813943,85.4125648 31.8550857,84.6264249 C31.5722057,85.1292746 31.2186057,85.6387306 30.7942857,86.1540155 C30.3691886,86.6700777 29.8850286,87.1406736 29.3410286,87.5665803 C28.7958629,87.9917098 28.1865829,88.3367876 27.5120229,88.6010363 C26.8366857,88.865285 26.1018971,88.9974093 25.3076571,88.9974093 C24.9482286,88.9974093 24.6027886,88.9523316 24.27056,88.8621762 C23.9383314,88.7716321 23.6472914,88.6169689 23.3970514,88.3977979 C23.1464229,88.1790155 22.9455314,87.8852332 22.7928229,87.5180052 C22.6405029,87.1507772 22.5643429,86.6891192 22.5643429,86.1349741 C22.5643429,86.1221503 22.5861029,85.9255181 22.6296229,85.5446891 C22.6731429,85.1642487 22.8118629,84.5646373 23.0461714,83.7458549 C23.2800914,82.9274611 23.64224,81.8665803 24.1314514,80.5639896 C24.6218286,79.2617876 25.3130971,77.6821244 26.2056457,75.8257772 C26.4341257,75.3353627 26.6983543,74.9840674 26.9971657,74.7715026 C27.2971429,74.5585492 27.6204343,74.4520725 27.9685943,74.4520725 C28.1213029,74.4520725 28.2790629,74.475 28.4422629,74.5196891 C28.60624,74.5651554 28.7581714,74.6358808 28.9,74.7326425 C29.0410514,74.8294041 29.15568,74.9522021 29.2431086,75.1002591 C29.3293714,75.2483161 29.3736686,75.4189119 29.3736686,75.6124352 C29.3736686,75.7414508 29.35696,75.8646373 29.32432,75.9796632 C29.2695314,76.2 29.1525714,76.4860104 28.9738286,76.8404145 C28.79392,77.1955959 28.5840914,77.6016839 28.3443429,78.059456 C28.1053714,78.517228 27.8520229,79.0103627 27.5854629,79.5396373 C27.3185143,80.0677461 27.0709943,80.6156736 26.8425143,81.1834197 C26.6140343,81.7511658 26.4178057,82.3278497 26.2546057,82.9146373 C26.0914057,83.5014249 25.9985371,84.0722798 25.9771657,84.6264249 C25.9771657,84.8584197 26.0311771,85.0709845 26.1403657,85.2645078 C26.2491657,85.4580311 26.4290743,85.5544041 26.6793143,85.5544041 C27.3865143,85.5544041 28.0614629,85.3220207 28.70416,84.8584197 C29.34608,84.3940415 29.93904,83.8169689 30.4838171,83.1272021 C31.0282057,82.4374352 31.5205257,81.6955959 31.9615543,80.9024611 C32.4025829,80.1093264 32.7697829,79.3845855 33.0635429,78.7266839 C33.2706514,78.2887306 33.4528914,77.8173575 33.6106514,77.3148964 C33.7684114,76.811658 33.94016,76.348057 34.12512,75.9221503 C34.3104686,75.4962435 34.52224,75.1418394 34.7619886,74.8581606 C35.00096,74.5748705 35.3009371,74.4326425 35.6595886,74.4326425 C36.0520457,74.4326425 36.3617371,74.5810881 36.5909943,74.8775907 C36.8194743,75.1744819 36.9333257,75.528886 36.9333257,75.9411917 C36.9333257,76.1731865 36.8602743,76.4930052 36.7130057,76.8990933 C36.5657371,77.3051813 36.3807771,77.7695596 36.1577371,78.2918394 C35.9343086,78.8141192 35.6922286,79.3717617 35.4314971,79.9643782 C35.1703771,80.5581606 34.92752,81.1604922 34.7052571,81.7733161 C34.4810514,82.3857513 34.2968686,82.9853627 34.1496,83.5721503 C34.0023314,84.1585492 33.92928,84.7037565 33.92928,85.2062176 C33.92928,85.6705959 34.16864,85.9029793 34.64736,85.9029793 C34.9850286,85.9029793 35.4039086,85.7867876 35.9047771,85.5544041 C36.4056457,85.3220207 36.9309943,84.9967617 37.4804343,84.5774611 C37.6176,84.4729275 37.7559314,84.3637306 37.8930971,84.2490933 C38.0465829,83.6160622 38.2264914,83.030829 38.4359314,82.4988342 C38.8167314,81.4923575 39.20336,80.4936528 39.5954286,79.5007772 C39.9871086,78.5079016 40.3461486,77.5985751 40.6733257,76.7731865 L45.6206171,64.2975389 C45.8164571,63.7946891 46.0806857,63.4398964 46.4121371,63.2335492 C46.7447543,63.0275907 47.0793143,62.9242228 47.4169829,62.9242228 C47.7538743,62.9242228 48.0612343,63.0338083 48.3390629,63.2529793 C48.6168914,63.4725389 48.756,63.826943 48.756,64.3169689 C48.756,64.5489637 48.7093714,64.794171 48.6168914,65.0518135 C48.5244114,65.3098446 48.4074514,65.5869171 48.2656229,65.8834197 C47.9940114,66.4900259 47.6699429,67.2310881 47.2941943,68.107772 C46.9184457,68.9848446 46.5154971,69.9392487 46.0857371,70.9705959 C45.6555886,72.0023316 45.21456,73.0756477 44.76304,74.1909326 C44.31152,75.3066062 43.8704914,76.3927461 43.4403429,77.4501295 C43.0109714,78.5079016 42.6076343,79.509715 42.2318857,80.4579016 C41.8565257,81.4056995 41.5332343,82.2279793 41.2604571,82.9239637 C41.1407771,83.2204663 41.0238171,83.5659326 40.9099657,83.9591969 C40.7953371,84.3520725 40.7386057,84.7037565 40.7386057,85.0134715 C40.7386057,85.2062176 40.7712457,85.3608808 40.8365257,85.4770725 C40.9018057,85.5932642 41.0269257,85.6515544 41.2118857,85.6515544 C41.4403657,85.6515544 41.7259657,85.571114 42.0690743,85.409456 C42.4117943,85.2485751 42.7817143,85.0352332 43.1792229,84.7709845 C43.57712,84.5071244 43.99056,84.2040155 44.4199314,83.8620466 C44.8504686,83.5204663 45.2775086,83.1660622 45.7018286,82.7984456 C46.1269257,82.4304404 46.5322057,82.0632124 46.9184457,81.6955959 C47.3046857,81.3283679 47.6509029,80.9898964 47.9559314,80.6801813 C48.0274286,80.6059585 48.1129143,80.5534974 48.2069486,80.5142487 C48.3907429,79.9651554 48.5586057,79.4273316 48.7066514,78.9011658 C48.7936914,78.6687824 48.91376,78.3404145 49.06608,77.9145078 C49.2180114,77.488601 49.39248,77.0696891 49.58832,76.6569948 C49.78416,76.2446891 50.0052571,75.886399 50.24928,75.5836788 C50.4944686,75.2809585 50.7586971,75.1290155 51.0415771,75.1290155 C51.4771657,75.1290155 51.7930743,75.2292746 51.9889143,75.4286269 C52.1847543,75.6291451 52.2826743,75.9221503 52.2826743,76.3091969 C52.2826743,76.3865285 52.2717943,76.5089378 52.2500343,76.6764249 C52.2278857,76.8443005 52.2014629,77.0218912 52.1688229,77.2088083 C52.1361829,77.3953368 52.1004343,77.5729275 52.0623543,77.7408031 C52.0238857,77.9082902 51.9889143,78.0306995 51.9562743,78.1080311 C52.3584457,77.6693005 52.7940343,77.234456 53.2622629,76.8027202 C53.7304914,76.3705959 54.2146514,75.9796632 54.71552,75.6322539 C55.2167771,75.2836788 55.7281371,75.0007772 56.2511543,74.7804404 C56.7730057,74.5620466 57.2960229,74.4520725 57.8182629,74.4520725 C58.1773029,74.4520725 58.5340114,74.5037565 58.8876114,74.6071244 C59.2412114,74.7101036 59.5575086,74.861658 59.83456,75.061399 C60.1123886,75.2619171 60.3385371,75.5129534 60.5122286,75.8160622 C60.6863086,76.1187824 60.7733486,76.4700777 60.7733486,76.8699482 C60.7733486,77.3992228 60.6404571,77.9630829 60.3735086,78.5626943 C60.1069486,79.1623057 59.7723886,79.7650259 59.36944,80.3704663 C58.9664914,80.9770725 58.5309029,81.5665803 58.0634514,82.140544 C57.5952229,82.7145078 57.1573029,83.236399 56.7489143,83.7069948 C56.3405257,84.1783679 55.9974171,84.5774611 55.7195886,84.9062176 C55.4429257,85.2357513 55.2976,85.4580311 55.2871086,85.5742228 C55.2871086,85.728886 55.3364571,85.8544041 55.4343771,85.9515544 C55.5322971,86.0479275 55.6954971,86.0965026 55.9239771,86.0965026 C56.1089371,86.0965026 56.3817143,85.9931347 56.7403657,85.7867876 C57.0994057,85.5804404 57.6033829,85.2229275 58.2507429,84.7134715 C58.8981029,84.2040155 59.7207086,83.5204663 60.7166171,82.6628238 C61.3997257,82.0752591 62.1994057,81.3746114 63.1005029,80.5775907 L67.4190857,40.5792746 C66.7235429,40.9632124 66.0000229,41.2041451 65.5733714,41.3452073 C63.78672,41.9351036 61.2637257,42.4604922 58.0743314,42.905829 Z M33.9898971,33.4158031 C15.3196221,33.4158031 0.184182857,35.5035159 0.184182857,38.0790155 C0.184182857,40.6545152 15.3196221,42.742228 33.9898971,42.742228 C52.6601722,42.742228 67.7956114,40.6545152 67.7956114,38.0790155 C67.7956114,35.5035159 52.6601722,33.4158031 33.9898971,33.4158031 Z M47.4880914,39.4418394 C47.4880914,40.046114 45.6893943,40.5361399 43.4702629,40.5361399 C41.25152,40.5361399 39.4528229,40.046114 39.4528229,39.4418394 C39.4528229,38.8371762 41.25152,38.3471503 43.4702629,38.3471503 C45.6893943,38.3471503 47.4880914,38.8371762 47.4880914,39.4418394 Z" id="Cup" fill-rule="nonzero"></path>
                    <path d="M40.2663962,38.9580286 C40.2464757,38.9897909 40.2361829,39.0222237 40.2361829,39.0551813 C40.2361829,39.4465026 41.6843886,39.7632124 43.4702629,39.7632124 C45.2565257,39.7632124 46.7043429,39.4465026 46.7043429,39.0551813 L50.9285029,21.9264249 L67.7276293,4.18882343 C67.7331144,4.18341181 67.7384199,4.17781148 67.7435429,4.17202073 C68.0990857,3.76981865 67.3775086,2.52512953 66.18032,1.45764249 C64.9831314,0.39015544 63.6903543,0.0287564767 63.2885714,0.435233161 C63.2855682,0.438273119 63.2826391,0.441356021 63.2797831,0.444481522 L45.356,19.3064767 L40.2663962,38.9580286 Z" id="Straw"></path>
                </g>
                <rect id="Rectangle-Copy-4" fill="#FFFFFF" fill-rule="nonzero" style="mix-blend-mode: color;" x="0" y="0" width="150" height="150"></rect>
            </g>
        </g>
    </g>
</svg>