<?xml version="1.0" encoding="UTF-8"?>
<svg width="150px" height="150px" viewBox="0 0 150 150" version="1.1" xmlns="http://www.w3.org/2000/svg" xmlns:xlink="http://www.w3.org/1999/xlink">
    <!-- Generator: Sketch 52.4 (67378) - http://www.bohemiancoding.com/sketch -->
    <title>HTML</title>
    <desc>Created with Sketch.</desc>
    <g id="Page-1" stroke="none" stroke-width="1" fill="none" fill-rule="evenodd">
        <g id="Greyscale" transform="translate(-1294.000000, -55.000000)">
            <g id="HTML" transform="translate(1294.000000, 55.000000)">
                <g id="HTML5_logo_and_wordmark" transform="translate(8.000000, 0.000000)">
                    <polyline id="Path" fill="#E44D26" points="12.2769231 135.072816 0.219230769 0.218446602 132.780769 0.218446602 120.723077 135 66.3903846 150"></polyline>
                    <polyline id="Path" fill="#F16529" points="66.5 138.531553 66.5 11.2864078 120.686538 11.2864078 110.346154 126.334951"></polyline>
                    <path d="M24.8461538,27.7791262 L66.5,27.7791262 L66.5,44.3082524 L43.0423077,44.3082524 L44.5769231,61.2378641 L66.5,61.2378641 L66.5,77.7305825 L29.3769231,77.7305825 M30.1076923,86.0315534 L46.7692308,86.0315534 L47.9384615,99.2475728 L66.5,104.199029 L66.5,121.456311 L32.4461538,111.990291" id="Shape" fill="#EBEBEB" fill-rule="nonzero"></path>
                    <path d="M108.007692,27.7791262 L66.4269231,27.7791262 L66.4269231,44.3082524 L106.473077,44.3082524 M104.975,61.2378641 L66.4269231,61.2378641 L66.4269231,77.7669903 L86.8884615,77.7669903 L84.9519231,99.2475728 L66.4269231,104.199029 L66.4269231,121.383495 L100.407692,111.990291" id="Shape" fill="#FFFFFF" fill-rule="nonzero"></path>
                </g>
                <rect id="Rectangle-Copy-5" fill="#FFFFFF" fill-rule="nonzero" style="mix-blend-mode: color;" x="0" y="0" width="150" height="150"></rect>
            </g>
        </g>
    </g>
</svg>