<?xml version="1.0" encoding="UTF-8"?>
<svg width="150px" height="150px" viewBox="0 0 150 150" version="1.1" xmlns="http://www.w3.org/2000/svg" xmlns:xlink="http://www.w3.org/1999/xlink">
    <!-- Generator: Sketch 52.4 (67378) - http://www.bohemiancoding.com/sketch -->
    <title>JAVA</title>
    <desc>Created with Sketch.</desc>
    <g id="Page-1" stroke="none" stroke-width="1" fill="none" fill-rule="evenodd">
        <g id="Greyscale" transform="translate(-1336.000000, -249.000000)">
            <g id="JAVA" transform="translate(1336.000000, 249.000000)">
                <g id="java" transform="translate(20.000000, 0.000000)">
                    <path d="M35.4690532,115.702749 C35.4690532,115.702749 29.8068476,119.028617 39.5032723,120.15092 C51.2520621,121.504567 57.2556726,121.309629 70.1988877,118.840629 C70.1988877,118.840629 73.6086736,120.993226 78.3624338,122.857553 C49.3377676,135.406756 12.6736331,122.130422 35.4690532,115.702749 Z" id="Path" fill="#0074BD"></path>
                    <path d="M31.9205409,99.3239486 C31.9205409,99.3239486 25.5689662,104.069657 35.272606,105.081748 C47.8239106,106.389391 57.7321965,106.496624 74.8873842,103.164799 C74.8873842,103.164799 77.2545896,105.591435 80.9824953,106.917612 C45.8955138,117.274833 6.81563614,107.732448 31.9205409,99.3239486 Z" id="Path" fill="#0074BD"></path>
                    <path d="M61.818233,71.5364503 C68.9736343,79.8486386 59.9419817,87.3224924 59.9419817,87.3224924 C59.9419817,87.3224924 78.1000669,77.8645029 69.7627028,66.0149596 C61.9730295,54.9696615 56.000903,49.4829222 88.332704,30.5606549 C88.332704,30.5606549 37.5797949,43.3494771 61.818233,71.5364503 Z" id="Path" fill="#EA2D2E"></path>
                    <path d="M100.205134,127.819381 C100.205134,127.819381 104.396773,131.30643 95.5884606,134.003133 C78.8392857,139.122832 25.8631451,140.667115 11.1489535,134.208001 C5.8632443,131.884626 15.7800572,128.664335 18.9002556,127.984202 C22.1536051,127.273951 24.0111628,127.403689 24.0111628,127.403689 C18.1285689,123.223269 -14.0107204,135.61394 7.68800608,139.167512 C66.8612528,148.846918 115.551958,134.807709 100.205134,127.819381 Z" id="Path" fill="#0074BD"></path>
                    <path d="M38.1940615,82.3513967 C38.1940615,82.3513967 11.2506206,88.8115043 28.6530891,91.1593707 C36.0032978,92.151935 50.6469784,91.9235691 64.2972723,90.767839 C75.4498333,89.8232646 86.6420773,87.8030537 86.6420773,87.8030537 C86.6420773,87.8030537 82.712477,89.5042143 79.867436,91.4635276 C52.5012565,98.7272186 -0.355179191,95.3444243 14.8637408,87.9182296 C27.7285738,81.637505 38.1940615,82.3513967 38.1940615,82.3513967 Z" id="Path" fill="#0074BD"></path>
                    <path d="M86.5305713,109.614977 C114.347366,95.0316623 101.484501,81.0156216 92.5069614,82.9034464 C90.3116063,83.3658047 89.3267466,83.7662725 89.3267466,83.7662725 C89.3267466,83.7662725 90.1446754,82.4731918 91.7021509,81.9168395 C109.46275,75.6185738 123.118619,100.499206 85.9746813,110.353029 C85.9743535,110.353029 86.4016836,109.962491 86.5305713,109.614977 Z" id="Path" fill="#0074BD"></path>
                    <path d="M69.7630307,0 C69.7630307,0 85.1649516,15.5520498 55.1501783,39.4599753 C31.0803109,58.6456908 49.6621186,69.5807775 55.1416514,82.0809982 C41.0902641,69.2882044 30.7838363,58.0251313 37.6968762,47.5441287 C47.8485075,32.1612021 75.9758789,24.7005869 69.7630307,0 Z" id="Path" fill="#EA2D2E"></path>
                    <path d="M40.9289084,149.145117 C67.6237566,150.86746 108.628096,148.186642 109.598525,135.438198 C109.598525,135.438198 107.733096,140.27095 87.5347807,144.105512 C64.7478874,148.434866 36.6365859,147.930806 19.9700566,145.153678 C19.9700566,145.153678 23.3844338,148.005604 40.9289084,149.145117 Z" id="Path" fill="#0074BD"></path>
                </g>
                <rect id="Rectangle-Copy-6" fill="#FFFFFF" fill-rule="nonzero" style="mix-blend-mode: color;" x="0" y="0" width="150" height="150"></rect>
            </g>
        </g>
    </g>
</svg>