<?xml version="1.0" encoding="UTF-8"?>
<svg width="150px" height="150px" viewBox="0 0 150 150" version="1.1" xmlns="http://www.w3.org/2000/svg" xmlns:xlink="http://www.w3.org/1999/xlink">
    <!-- Generator: Sketch 52.4 (67378) - http://www.bohemiancoding.com/sketch -->
    <title>JENKINS</title>
    <desc>Created with Sketch.</desc>
    <g id="Page-1" stroke="none" stroke-width="1" fill="none" fill-rule="evenodd">
        <g id="Greyscale" transform="translate(-1453.000000, -55.000000)">
            <g id="JENKINS" transform="translate(1453.000000, 55.000000)">
                <g id="Jenkins_logo" transform="translate(21.000000, 0.000000)">
                    <g id="g10" transform="translate(54.319934, 75.119808) scale(-1, 1) rotate(-180.000000) translate(-54.319934, -75.119808) translate(0.000000, 0.239617)">
                        <g id="g3393">
                            <path d="M106.669945,77.4345048 C106.669945,47.8246006 83.1563161,23.8207668 54.1506718,23.8207668 C25.1455077,23.8207668 1.63184884,47.8246006 1.63184884,77.4345048 C1.63184884,107.045128 25.1455077,131.049321 54.1506718,131.049321 C83.1563161,131.049321 106.669945,107.045128 106.669945,77.4345048" id="path22" fill="#D33833"></path>
                            <path d="M3.77201222,64.1561502 C3.77201222,64.1561502 -0.0300110132,120.066494 51.5891718,121.664137 L47.9880903,127.654553 L19.9779714,118.269369 L11.9748744,109.084265 L4.97245275,95.7052716 L0.970670209,80.1301917 L2.17111074,69.7470048" id="path24" fill="#EF3D3A"></path>
                            <path d="M18.1796514,114.008986 C8.96506993,104.599241 3.26299543,91.6072284 3.26299543,77.2344249 C3.26299543,62.8646166 8.96506993,49.8709265 18.1796514,40.4629193 C27.3986746,31.0549121 40.103837,25.2496006 54.1499515,25.2496006 C68.1964262,25.2496006 80.902489,31.0549121 90.1206718,40.4629193 C99.3346531,49.8709265 105.037946,62.8646166 105.037946,77.2344249 C105.037946,91.6072284 99.3346531,104.599241 90.1206718,114.008986 C80.902489,123.415136 68.1964262,129.220447 54.1499515,129.221645 C40.103837,129.220447 27.3986746,123.415136 18.1796514,114.008986 Z M15.8471955,38.1870407 C6.05424174,48.1825879 0,61.9966054 0,77.2344249 C0,92.4746406 6.05424174,106.28734 15.8471955,116.283546 C25.6378684,126.28155 39.1906619,132.478634 54.1499515,132.476837 C69.1093612,132.478634 82.6635352,126.28155 92.4525275,116.283546 C102.246322,106.28734 108.301344,92.4734425 108.300143,77.2344249 C108.301344,61.9966054 102.246322,48.1825879 92.4525275,38.1870407 C82.6635352,28.1895767 69.1093612,21.9932708 54.1499515,21.9932708 C39.1906619,21.9932708 25.6378684,28.1895767 15.8471955,38.1870407 Z" id="path26" fill="#231F20" fill-rule="nonzero"></path>
                            <polyline id="path28" fill="#F0D6B7" points="76.2585848 77.1373802 68.2552478 75.9392971 57.451163 74.7412141 50.4482731 74.5417332 43.6460969 74.7412141 38.4438678 76.3388578 33.8420991 81.3306709 30.2407775 91.514377 29.4405639 93.7110623 24.6388018 95.308107 21.8376938 99.9009585 19.8370396 106.490415 22.0381674 112.28135 27.2396762 114.078474 31.4412181 112.08127 33.4423524 107.688498 35.8432335 108.088059 36.643207 109.086062 35.8432335 113.678914 35.6427599 119.469848 36.8432004 127.456869 36.7963232 132.019169 40.444522 137.840056 46.8469515 142.432907 58.0513833 147.22524 70.4556553 145.428115 81.25962 137.640575 86.2618557 129.653554 89.4628304 123.86262 90.262924 109.485623 87.862043 97.1052316 83.4606278 86.1230032 79.2590859 80.3320687"></polyline>
                            <polyline id="path30" fill="#335061" points="69.4556883 42.5930511 40.8447489 41.3949681 40.8447489 36.6026358 43.24563 19.8294728 42.0451894 18.4313099 22.0381674 25.2208466 20.6372533 27.6170128 18.6365991 50.1805112 14.0355507 63.7589856 13.0348634 66.9536741 29.040337 77.9359026 34.0425727 79.933107 38.4438678 74.5417332 42.2451828 71.1469649 46.6471982 69.749401 48.6476123 69.1503594 51.0484934 58.7671725 52.8491542 56.570607 57.451163 58.168131 54.2495881 51.9776358 71.6560958 43.7911342 69.4556883 42.5930511"></polyline>
                            <polyline id="path32" fill="#6D6B6D" points="22.0381674 112.28135 27.2396762 114.078474 31.4412181 112.08127 33.4423524 107.688498 35.8432335 108.088059 36.4434537 110.484225 35.2430132 115.076478 36.4434537 126.059305 35.4427665 132.04972 39.0440881 136.243011 46.8469515 142.432907 44.6460639 145.428115 33.6421057 140.036741 29.040337 136.442492 26.4394626 130.851637 22.4379141 125.460264 21.2374736 119.070288 22.0381674 112.28135"></polyline>
                            <path d="M30.2407775,131.051118 C30.2407775,131.051118 33.2418789,138.439097 45.2462841,142.033347 C57.2506894,145.627596 45.8465044,144.629593 45.8465044,144.629593 L32.8421322,139.637181 L27.8398965,134.645367 L25.639489,130.651558 L30.2407775,131.051118" id="path34" fill="#DCD9D8"></path>
                            <path d="M24.2385749,113.678914 C24.2385749,113.678914 20.037033,127.656949 36.0429868,129.653554 L35.4427665,132.04972 L24.4390485,129.453474 L21.2374736,119.070288 L22.0381674,112.28135 L24.2385749,113.678914" id="path36" fill="#DCD9D8"></path>
                            <path d="M30.6410044,95.1086262 L33.2606657,97.6419728 C33.2606657,97.6419728 34.4430396,97.5047923 34.642793,96.1072284 C34.8425463,94.7090655 35.4427665,82.1291933 44.0458436,75.3396565 C44.8305716,74.7202476 37.6438943,76.3388578 37.6438943,76.3388578 L31.2412247,86.322484" id="path38" fill="#F7E4CD"></path>
                            <path d="M67.4557544,98.9023562 C67.4557544,98.9023562 67.9221256,104.955072 69.5553249,104.489617 C71.1885242,104.024161 71.1885242,102.394169 71.1885242,102.394169 C71.1885242,102.394169 67.2222687,99.8332668 67.4557544,98.9023562" id="path40" fill="#F7E4CD"></path>
                            <path d="M84.060848,121.066893 C84.060848,121.066893 80.7632379,120.372005 80.4595264,117.472644 C80.155815,114.572684 84.060848,116.873602 84.6610683,117.073083" id="path42" fill="#F7E4CD"></path>
                            <path d="M59.8520441,120.866813 C59.8520441,120.866813 55.4500286,120.267772 55.4500286,117.472644 C55.4500286,114.676917 60.4523844,114.876398 61.8526982,116.074481" id="path44" fill="#F7E4CD"></path>
                            <path d="M32.6416586,107.887979 C32.6416586,107.887979 25.0385485,112.480831 24.2385749,108.08746 C23.4383612,103.694688 21.6372203,100.499401 25.4390154,95.9071486 L22.838141,96.7056709 L20.4372599,102.895567 L19.6372863,108.885982 L24.2385749,113.678914 L29.4405639,113.279353 L32.4416652,110.883187 L32.6416586,107.887979" id="path46" fill="#F7E4CD"></path>
                            <path d="M36.2429802,120.467851 C36.2429802,120.467851 39.6443084,138.039537 56.8509427,141.434305 C71.0168612,144.228834 78.4583921,140.835264 81.25962,137.640575 C81.25962,137.640575 68.6549945,152.616014 56.6504692,148.023762 C44.6460639,143.430911 35.8432335,135.044329 36.0429868,129.653554 C36.3836718,120.471446 36.2429802,120.467851 36.2429802,120.467851" id="path48" fill="#F7E4CD"></path>
                            <path d="M82.6605341,135.64397 C82.6605341,135.64397 76.8588051,135.84345 76.6583315,130.651558 C76.6583315,130.651558 76.6577313,129.853035 77.0580782,129.054513 C77.0580782,129.054513 81.6605672,134.246406 84.4611949,131.450679" id="path50" fill="#F7E4CD"></path>
                            <path d="M57.2542307,128.513578 C57.2542307,128.513578 56.2554042,136.482628 49.447826,131.849641 C45.0462907,128.854433 45.4467577,124.661142 46.2467313,123.86262 C47.0469449,123.063498 46.8293651,121.455072 47.4385286,122.559105 C48.0473921,123.663139 47.8469185,127.257388 50.0480463,128.255391 C52.2489339,129.253994 55.8567979,130.369409 57.2542307,128.513578" id="path52" fill="#F7E4CD"></path>
                            <path d="M38.4438678,74.5417332 L19.6372863,66.1551518 C19.6372863,66.1551518 27.4401498,35.2044728 23.4383612,25.6198083 L20.6372533,26.6178115 L20.4372599,38.3992812 L15.2359912,60.7631789 L13.0348634,66.9536741 L32.6416586,80.1319888 L38.4438678,74.5417332" id="path54" fill="#49728B"></path>
                            <path d="M40.3777175,57.4228035 L43.0458767,54.173722 L43.0458767,42.1928914 L39.8443018,42.1928914 C39.8443018,42.1928914 39.4445551,50.5794728 39.4445551,51.5781949 C39.4445551,52.5766773 39.8443018,56.1709265 39.8443018,56.1709265" id="path56" fill="#49728B"></path>
                            <polyline id="path58" fill="#49728B" points="40.444522 40.3957668 31.4412181 39.9968051 34.0425727 38.1996805 40.444522 37.2011981"></polyline>
                            <polyline id="path60" fill="#335061" points="71.2563491 42.3929712 78.6588656 42.5925719 80.4595264 24.2216454 72.8565363 23.2236422 71.2563491 42.3929712"></polyline>
                            <path d="M73.2568833,42.3929712 L84.4611949,42.9920128 C84.4611949,42.9920128 89.0624835,54.5734026 89.0624835,55.1724441 C89.0624835,55.7714856 93.064152,71.9454872 93.064152,71.9454872 L84.060848,81.3300719 L82.2601872,82.9277157 L77.4584251,78.1353834 L77.4584251,59.5650958 L73.2568833,42.3929712" id="path62" fill="#335061"></path>
                            <path d="M78.2585187,43.790655 L71.2563491,42.3929712 L72.2563161,36.8015176 C74.8570705,35.6034345 79.2590859,38.798722 79.2590859,38.798722" id="path64" fill="#49728B"></path>
                            <polyline id="path66" fill="#49728B" points="78.4589923 78.7344249 92.4639317 68.351238 92.8642786 73.1435703 82.2601872 82.9277157 78.4589923 78.7344249"></polyline>
                            <polyline id="path68" fill="#FFFFFF" points="47.38787 3.05394369 43.24563 19.8294728 41.1854339 32.2073482 40.8447489 41.3949681 59.5925088 42.3910543 71.2563491 42.3929712 70.1957599 21.4246006 71.9964207 5.25050319 71.7965474 2.25529553 56.5914075 1.05721246 47.38787 3.05394369"></polyline>
                            <path d="M68.6549945,42.5925719 C68.6549945,42.5925719 67.6550275,21.8254792 70.6561289,7.04952077 C70.6561289,7.04952077 64.6539262,3.25517971 55.8502555,2.25717053 L72.656663,2.85621206 L74.6571971,4.05429513 L72.2563161,36.8015176 L71.6560958,43.7911342" id="path70" fill="#DCD9D8"></path>
                            <polyline id="path72" fill="#FFFFFF" points="80.8004515 25.817492 88.603315 28.0140575 103.408348 28.8126997 105.609356 35.6015775 101.607687 47.3829872 97.0063987 47.9820288 90.6038491 45.9853035 84.4611949 42.9920128 81.2001982 43.5891374 78.6588656 42.5925719"></polyline>
                            <path d="M80.6593998,29.813099 C80.6593998,29.813099 85.8609086,32.2087859 86.6616024,32.0091853 L84.4611949,42.9920128 L87.0619493,43.990016 C87.0619493,43.990016 88.8626101,33.6069489 88.8626101,32.4088658 C88.8626101,32.4088658 100.066322,31.8098243 101.066889,31.8098243 C101.066889,31.8098243 103.46777,36.4025559 102.86755,41.1948882 L105.068557,34.8050319 L105.268431,31.2107827 L102.067456,26.4184505 L98.4661344,25.6198083 L92.4639317,25.8194089 L90.4633976,28.4149361 L83.4606278,27.4169329 L81.25962,26.6178115" id="path74" fill="#DCD9D8"></path>
                            <path d="M72.7971145,43.9881589 L68.3956993,55.1705272 L63.7938106,61.759984 C63.7938106,61.759984 64.7937775,64.5557109 66.1946916,64.5557109 C67.5956057,64.5557109 70.7965804,64.5557109 70.7965804,64.5557109 L75.1979956,62.9580671 L74.7982489,55.5699681 L72.7971145,43.9881589" id="path76" fill="#FFFFFF"></path>
                            <path d="M73.6572302,47.784345 C73.6572302,47.784345 68.0547742,58.5666134 68.0547742,60.1641374 C68.0547742,60.1641374 69.0547412,62.5603035 70.4556553,61.961262 C71.8565694,61.3622204 74.8576707,59.7651757 74.8576707,59.7651757 L74.8576707,63.5589058 L68.0547742,64.9570687 L63.4534857,64.3580272 L71.2563491,45.9872204 L72.8565363,45.7871406" id="path78" fill="#DCD9D8"></path>
                            <polyline id="path80" fill="#FFFFFF" points="49.1887709 74.1397764 43.6460969 74.7412141 38.4438678 76.3388578 38.4438678 74.5417332 40.9856806 71.7442093 48.9885374 68.1499601"></polyline>
                            <path d="M40.2452489,73.5413339 C40.2452489,73.5413339 46.4479251,70.9450879 48.4485793,71.5441294 L48.6476123,69.1503594 L43.0465969,70.3460463 L39.6450286,72.7422125 L40.2452489,73.5413339" id="path82" fill="#DCD9D8"></path>
                            <path d="M80.7788436,63.8757987 C77.3839978,63.9752396 74.3168722,64.3777955 71.6314868,65.1337859 C71.8139537,66.2324281 71.4724284,67.3107029 71.7467291,68.1020367 C72.4952037,68.639976 73.7496641,68.6315895 74.8810793,68.7579872 C73.9027203,69.2378195 72.5282159,69.4277157 71.3992015,69.1503594 C71.3727919,69.9129393 71.0300661,70.3855831 70.8223899,70.9822284 C72.7310903,71.6621406 77.2369438,76.1196086 79.771674,74.6435703 C80.9793172,73.9414936 81.4925055,69.9315096 81.5861399,67.9816294 C81.6641685,66.3642173 81.4390859,64.7324281 80.7788436,63.8757987" id="path84" fill="#D33833"></path>
                            <path d="M80.7788436,63.8757987 C77.3839978,63.9752396 74.3168722,64.3777955 71.6314868,65.1337859 C71.8139537,66.2324281 71.4724284,67.3107029 71.7467291,68.1020367 C72.4952037,68.639976 73.7496641,68.6315895 74.8810793,68.7579872 C73.9027203,69.2378195 72.5282159,69.4277157 71.3992015,69.1503594 C71.3727919,69.9129393 71.0300661,70.3855831 70.8223899,70.9822284 C72.7310903,71.6621406 77.2369438,76.1196086 79.771674,74.6435703 C80.9793172,73.9414936 81.4925055,69.9315096 81.5861399,67.9816294 C81.6641685,66.3642173 81.4390859,64.7324281 80.7788436,63.8757987 Z" id="path86" stroke="#D33833" stroke-width="1.19808307"></path>
                            <path d="M64.5446861,69.4145367 C64.5356828,69.158147 64.5248789,68.8999601 64.5146751,68.6411741 C63.4546861,67.9462859 61.7434581,67.9546725 60.5802313,67.370607 C62.2950606,67.2957268 63.6449559,66.8835863 64.8129846,66.302516 C64.7871751,65.6567492 64.7625661,65.0115815 64.7373568,64.3658147 C62.7944438,63.0383387 61.0195925,61.0615016 58.732033,59.8166334 C57.6504361,59.2278954 53.8545231,57.7129792 52.7037808,57.9806909 C52.0527219,58.1315895 51.9940804,58.9379593 51.7338249,59.6980232 C51.1793414,61.3256789 49.9026729,63.9165335 49.791332,66.3666134 C49.6495,69.461262 49.3364851,74.6477636 52.6780314,74.0103834 C55.3738607,73.4970048 58.5092913,72.2575879 60.5964372,71.1194089 C61.8719053,70.4233227 62.609576,69.563099 64.5446861,69.4145367" id="path88" fill="#D33833"></path>
                            <path d="M64.5446861,69.4145367 C64.5356828,69.158147 64.5248789,68.8999601 64.5146751,68.6411741 C63.4546861,67.9462859 61.7434581,67.9546725 60.5802313,67.370607 C62.2950606,67.2957268 63.6449559,66.8835863 64.8129846,66.302516 C64.7871751,65.6567492 64.7625661,65.0115815 64.7373568,64.3658147 C62.7944438,63.0383387 61.0195925,61.0615016 58.732033,59.8166334 C57.6504361,59.2278954 53.8545231,57.7129792 52.7037808,57.9806909 C52.0527219,58.1315895 51.9940804,58.9379593 51.7338249,59.6980232 C51.1793414,61.3256789 49.9026729,63.9165335 49.791332,66.3666134 C49.6495,69.461262 49.3364851,74.6477636 52.6780314,74.0103834 C55.3738607,73.4970048 58.5092913,72.2575879 60.5964372,71.1194089 C61.8719053,70.4233227 62.609576,69.563099 64.5446861,69.4145367 Z" id="path90" stroke="#D33833" stroke-width="1.19808307"></path>
                            <path d="M66.4743943,65.7220447 C66.1778855,67.4077476 65.8351597,67.888778 65.9678084,69.3594249 C70.4724615,72.3570288 71.3181718,64.2106629 66.4743943,65.7220447" id="path92" fill="#D33833"></path>
                            <path d="M66.4743943,65.7220447 C66.1778855,67.4077476 65.8351597,67.888778 65.9678084,69.3594249 C70.4724615,72.3570288 71.3181718,64.2106629 66.4743943,65.7220447 Z" id="path94" stroke="#D33833" stroke-width="1.19808307"></path>
                            <path d="M72.9969879,64.355631 C72.9969879,64.355631 71.5960738,66.3528355 72.596641,66.951877 C73.5972081,67.5509185 74.5977753,66.951278 75.1979956,67.9498802 C75.7982159,68.9484824 75.1979956,69.547524 75.3978689,70.745607 C75.5977423,71.9436901 76.5989097,72.14377 77.5988767,72.3432508 C78.5988436,72.5427316 81.4006718,72.9422923 81.8004185,71.9436901 L80.599978,75.5379393 L78.1990969,76.3364617 L70.5961068,71.9436901 L70.1957599,69.7470048 L70.1957599,65.3542332" id="path96" fill="#EF3D3A"></path>
                            <path d="M51.9893987,57.7661142 C51.7490705,60.8823882 51.4946971,63.9944089 51.2116933,67.1076278 C50.7882379,71.7561901 52.3305039,70.9450879 56.3679455,70.9450879 C56.9846118,70.9450879 60.1648789,70.211262 60.3923623,69.7470048 C61.4835628,67.5227636 58.5676927,68.0169728 61.6492236,66.3396565 C64.2505782,64.9241214 68.8458645,67.1992812 67.7948789,70.3460463 C67.206663,71.0457268 64.7301542,70.5640974 63.8424284,71.0235623 C62.2794548,71.8322684 60.7164813,72.6409744 59.1533276,73.4496805 C57.1646779,74.4794329 52.5684912,75.980631 50.4482731,74.5417332 C45.0760617,70.8953674 50.7873376,61.7845447 52.7037808,57.9806909" id="path98" fill="#EF3D3A"></path>
                            <path d="M57.2542307,128.513578 C51.8011096,129.78115 49.0914752,126.236022 47.4385286,122.559105 C45.962587,122.916134 46.5499025,124.919329 46.9226993,125.940096 C47.8987775,128.61901 51.832321,132.185104 55.0463205,131.701677 C56.429408,131.49381 58.3010749,130.231629 57.2542307,128.513578" id="path100" fill="#231F20"></path>
                            <path d="M83.823761,122.315895 C83.9095925,122.3123 83.9966244,122.309305 84.0824559,122.305711 C85.3147081,119.750799 86.3812996,117.044329 87.93587,114.788938 C86.8944879,112.368211 80.0501762,110.226038 80.155815,114.572684 C81.6359581,115.21845 84.1910958,114.704473 85.5031773,115.529353 C84.7444989,117.607428 83.6496971,119.376398 83.823761,122.315895" id="path102" fill="#231F20"></path>
                            <path d="M60.0460352,122.249401 C61.2152643,120.110224 61.595804,117.86262 63.2578139,116.245807 C64.0062885,115.517971 65.4618227,114.630791 64.7403579,112.606629 C64.571696,112.129193 63.3394438,111.064696 62.6281828,110.855631 C60.0298293,110.090056 53.9752874,110.697484 56.0256399,113.930511 C58.1744884,113.830471 61.0628084,112.53774 62.6689978,114.094649 C61.4355452,116.0625 59.2365782,119.955671 60.0460352,122.249401" id="path104" fill="#231F20"></path>
                            <path d="M82.8484031,100.507788 C78.9361674,97.9996006 74.5737665,95.2721645 68.1634141,95.9047524 C66.7937115,97.0932508 66.2715198,99.7380192 67.6022081,101.484824 C68.2948623,100.296326 67.8597026,98.1104233 69.790011,97.7815495 C73.4273458,97.1603435 77.6606993,100.002196 80.2770595,100.995407 C81.8994548,103.72524 80.1372081,104.729233 78.6756718,106.486222 C75.6835738,110.085863 71.6699009,114.547524 71.8157544,119.936502 C73.0251982,120.811701 73.1296366,118.600639 73.3031002,118.198083 C74.8654736,114.548722 78.7975165,109.881589 81.6671696,106.758187 C82.3718282,105.989018 83.532054,105.250998 83.6611013,104.742412 C84.0332379,103.263379 82.692946,101.491414 82.8484031,100.507788" id="path106" fill="#231F20"></path>
                            <path d="M31.2724361,103.148363 C30.0461861,103.846845 29.754299,106.923522 28.3146707,107.010982 C26.2572957,107.135583 26.6324334,103.019569 26.6406564,100.61262 C25.2244967,101.895767 24.9754653,105.846446 26.0158271,107.875399 C24.830152,108.45647 24.3006977,107.234425 23.6430363,106.803714 C24.4882665,112.931909 32.6252726,109.646166 31.2724361,103.148363" id="path108" fill="#231F20"></path>
                            <path d="M85.3393172,97.9558706 C83.5182489,94.4964058 80.9421035,90.6865016 75.5983425,90.5756789 C75.4897026,91.6928914 75.406272,93.3929712 75.6043447,94.0656949 C79.6894438,94.4574681 82.2115694,96.5325479 85.3393172,97.9558706" id="path110" fill="#231F20"></path>
                            <path d="M59.7378822,95.7130591 C63.1461729,93.9243211 69.4100716,93.7320288 74.0425716,93.8674121 C74.2910628,92.8544329 74.2850606,91.6030351 74.2946641,90.3678115 C68.3398789,90.0712859 61.2992952,91.5419329 59.7378822,95.7130591" id="path112" fill="#231F20"></path>
                            <path d="M59.0900644,92.3775958 C61.4469493,86.4716454 69.547522,87.1515575 76.3786289,87.3144968 C76.0779185,86.5477236 75.4260793,85.6419728 74.6157819,85.3142971 C72.4267786,84.4253195 66.389163,83.7507987 63.3502478,85.3616214 C61.4229405,86.3841853 60.1846861,88.6946885 59.1287186,90.0491214 C58.6187715,90.7032748 56.0795396,92.3740016 59.0900644,92.3775958" id="path114" fill="#231F20"></path>
                            <path d="M82.5638987,59.8000399 C79.7980837,55.0722843 77.1517126,50.2165136 73.8703084,46.0464058 C75.2460132,50.0834065 75.8348293,56.8401757 76.0425055,61.9912141 C78.9205617,63.3354633 81.3850661,61.6886981 82.5638987,59.8000399" id="path116" fill="#81B0C4"></path>
                            <path d="M97.4469604,42.8080471 C94.350424,42.189357 92.1746256,39.1857628 89.153717,39.3785343 C90.8139262,41.714377 93.7231938,42.6990216 97.4469604,42.8080471" id="path118" fill="#231F20"></path>
                            <path d="M98.8130617,37.9715056 C96.2891355,37.7054712 93.3246476,37.2975839 90.7647081,37.5077276 C91.9765529,39.3551717 96.6456663,38.7177316 98.8130617,37.9715056" id="path120" fill="#231F20"></path>
                            <path d="M99.6875826,33.8016374 C96.8509416,33.7402955 93.3252478,33.7967252 90.6290584,34.022504 C92.2238436,35.7321086 97.8479075,34.656889 99.6875826,33.8016374" id="path122" fill="#231F20"></path>
                            <path d="M77.2267401,22.3903754 C77.6336894,18.8349441 79.0460077,15.232488 78.8689427,11.3387181 C77.3005672,10.8108427 76.3996366,10.3491613 74.2982654,10.3519768 C74.150011,13.6612021 73.7064482,18.7200479 73.8390969,21.8746006 C74.8726762,21.8063099 76.3966355,22.6114816 77.2267401,22.3903754" id="path124" fill="#DCD9D8"></path>
                            <path d="M72.6536619,74.7897364 C71.2293392,73.8618211 70.0162941,72.7032748 68.6483921,71.7124601 C65.6148789,71.5626997 63.9594714,71.9221246 61.7308535,73.6605431 C61.767467,73.8001198 61.9913491,73.7378195 61.9997522,73.9091454 C65.2469438,72.4648562 69.3746586,74.4974042 72.6536619,74.7897364" id="path126" fill="#F0D6B7"></path>
                            <path d="M55.6071063,52.6983427 C56.4992737,56.5567692 59.9950765,58.5551118 63.1695815,60.6799121 C66.4461839,56.5296326 68.4389152,51.1922923 70.6333205,46.0417332 C65.4486178,47.6015775 60.1510738,50.132528 55.6071063,52.6983427" id="path128" fill="#81B0C4"></path>
                            <path d="M73.8390969,21.8746006 C73.7064482,18.7200479 74.150011,13.6612021 74.2982654,10.3519768 C76.3996366,10.3491613 77.3005672,10.8108427 78.8689427,11.3387181 C79.0460077,15.232488 77.6336894,18.8349441 77.2267401,22.3903754 C76.3966355,22.6114816 74.8726762,21.8063099 73.8390969,21.8746006 Z M41.1186294,39.8151757 C42.5042979,27.1017173 44.5112544,16.4144569 48.1922852,5.1564357 C56.3620633,2.68071086 66.2108976,2.46496006 73.4321476,4.69896565 C72.106261,11.0530351 72.6854736,18.7888179 71.9105892,25.5694888 C71.3265749,30.6660144 71.6242841,35.7939297 70.8235903,40.9936102 C62.0735793,42.8103834 49.7057406,41.4183307 41.1186294,39.8151757 Z M72.8925496,40.9138179 C72.8187225,35.4536741 73.1374394,30.0676917 73.5551927,24.6007188 C75.6559637,24.9154553 77.0814868,25.125599 79.0334031,25.5526558 C78.3995705,30.8157748 78.4775991,36.7380791 77.1865253,41.39377 C75.6943778,41.3795128 74.3804956,41.4110823 72.8925496,40.9138179 Z M83.5494604,41.7939297 C82.5524945,42.0220447 81.3916685,41.8027955 80.4391189,41.784345 C80.8868833,37.3334065 81.9732819,32.4219249 82.3556222,27.7498802 C83.8543722,27.7033347 84.6550661,28.4088259 85.8879185,28.6461062 C85.9539427,32.7472045 85.5289868,38.3973642 83.5494604,41.7939297 Z M99.6857819,27.0797324 C102.809928,27.8369209 104.774449,31.6558107 103.900529,35.5776757 C103.314113,38.2134585 102.26973,43.1766374 101.15212,44.8628195 C100.326217,46.110024 98.0867952,47.7428914 96.298739,46.6000399 C93.3900716,44.7411542 88.2659912,44.2015375 86.1448128,41.9514177 C87.2084031,38.4170727 87.5385242,33.5625 87.9772852,29.0841853 C91.6110187,28.858107 96.0820595,30.0821885 99.1041685,28.7832268 C96.9943943,28.1011581 94.2567896,28.0957668 92.4339207,27.1017173 C93.9236674,26.3835863 97.4115474,26.5286741 99.6857819,27.0797324 Z M70.6333205,46.0417332 C68.4389152,51.1922923 66.4461839,56.5296326 63.1695815,60.6799121 C59.9950765,58.5551118 56.4992737,56.5567692 55.6071063,52.6983427 C60.1510738,50.132528 65.4486178,47.6015775 70.6333205,46.0417332 Z M76.0425055,61.9912141 C75.8348293,56.8401757 75.2460132,50.0834065 73.8703084,46.0464058 C77.1517126,50.2165136 79.7980837,55.0722843 82.5638987,59.8000399 C81.3850661,61.6886981 78.9205617,63.3354633 76.0425055,61.9912141 Z M69.9106553,64.1657348 C68.6675991,64.2993211 67.6124119,62.7394169 65.9960187,63.4139377 C65.6256828,63.0053914 65.2889593,62.5626997 64.9114207,62.163738 C68.4815308,57.8697484 70.1039262,51.7775559 72.8613381,46.7313498 C74.3408811,51.5786741 74.1704185,56.8892971 74.4963381,62.1799121 C72.4633921,62.0511182 71.3355782,64.0147764 69.9106553,64.1657348 Z M65.9678084,69.3594249 C65.8351597,67.888778 66.1778855,67.4077476 66.4743943,65.7220447 C71.3181718,64.2106629 70.4724615,72.3570288 65.9678084,69.3594249 Z M60.5964372,71.1194089 C58.5092913,72.2575879 55.3738607,73.4970048 52.6780314,74.0103834 C49.3364851,74.6483626 49.6495,69.461262 49.791332,66.3666134 C49.9026729,63.9165335 51.1793414,61.3256789 51.7338249,59.6980232 C51.9940804,58.9379593 52.0527219,58.1315895 52.7037808,57.9806909 C53.8545231,57.7129792 57.6504361,59.2278954 58.732033,59.8166334 C61.0195925,61.0615016 62.7944438,63.0383387 64.7373568,64.3658147 C64.7625661,65.0115815 64.7871751,65.6567492 64.8129846,66.302516 C63.6449559,66.8835863 62.2950606,67.2957268 60.5802313,67.370607 C61.7434581,67.9546725 63.4546861,67.9462859 64.5146751,68.6411741 C64.5248789,68.8999601 64.5356828,69.158147 64.5446861,69.4145367 C62.609576,69.563099 61.8719053,70.4233227 60.5964372,71.1194089 Z M40.6609615,74.7334265 C38.9287258,72.9782348 45.5194444,70.5856629 47.6178744,70.456869 C47.6061702,71.567492 48.2520672,72.6146166 48.1219394,73.4113419 C45.6296448,73.8480431 42.3542428,73.5599042 40.6609615,74.7334265 Z M61.9997522,73.9091454 C61.9913491,73.7378195 61.767467,73.8001198 61.7308535,73.6605431 C63.9594714,71.9221246 65.6148789,71.5626997 68.6483921,71.7124601 C70.0162941,72.7032748 71.2293392,73.8618211 72.6536619,74.7897364 C69.3746586,74.4974042 65.2469438,72.4648562 61.9997522,73.9091454 Z M81.5861399,67.9816294 C81.4925055,69.9315096 80.9793172,73.9414936 79.771674,74.6435703 C77.2369438,76.1202077 72.7310903,71.6621406 70.8223899,70.9822284 C71.0300661,70.3855831 71.3727919,69.9129393 71.3992015,69.1503594 C72.5282159,69.4277157 73.9027203,69.2378195 74.8810793,68.7579872 C73.7496641,68.6315895 72.4952037,68.639976 71.7467291,68.1020367 C71.4724284,67.3107029 71.8139537,66.2324281 71.6314868,65.1337859 C74.3168722,64.3777955 77.3839978,63.9752396 80.7788436,63.8757987 C81.4390859,64.7324281 81.6641685,66.3642173 81.5861399,67.9816294 Z M37.7447313,73.0357428 C37.2007517,73.4227236 33.5209213,78.201278 33.0167963,78.0029952 C26.3581327,75.3821885 20.1319879,70.8504393 14.5682461,66.5642971 C19.8729328,55.2040136 22.0142786,41.2858826 22.3926575,27.8711262 C28.4694075,25.0345447 33.8069262,20.9453674 42.0529323,20.5183706 C41.0987021,27.2563898 40.2276624,33.2678914 39.6860237,39.6116214 C37.6141233,40.4832867 34.6415925,39.5720847 32.702641,39.8819089 C32.6861949,42.2139177 35.6638877,40.903095 35.9118987,42.4713259 C36.0988073,43.657488 34.2735374,43.7473442 34.8678756,45.6151558 C36.3836718,45.0652356 37.1796839,43.8505591 38.7962572,43.3944489 C40.2733992,46.6196885 38.7756096,52.326278 38.9885077,55.0219649 C39.0288425,55.528095 39.2417406,57.8260184 40.3777175,57.4228035 C41.3830865,57.0659545 40.3202764,51.3114417 40.4304769,48.7601238 C40.5308337,46.4095447 40.1460325,44.1351038 41.0998425,42.6594848 C49.0680066,43.7419529 57.165098,44.4416334 65.7865419,44.6777157 C63.8898458,45.4899561 61.6366189,46.2586462 59.1662324,47.6483626 C57.8270209,48.4018371 53.6055518,49.9696486 53.21913,51.2391374 C52.6025237,53.2620407 54.8369036,54.3395966 55.2190639,56.0738219 C51.1969279,53.8845048 50.4121999,58.1723243 49.4607307,61.2100639 C48.5986344,63.9614617 48.1078943,66.0167732 47.8963767,67.6036342 C44.4315452,69.2521965 40.7270457,70.9217252 37.7447313,73.0357428 Z M78.0670485,77.4249201 C83.6148844,80.1098243 84.6148513,67.3903754 82.4402533,63.2929313 C82.7763767,62.0708866 83.9324009,61.6030351 84.404174,60.504393 C81.3082379,54.9693091 77.869576,49.8025759 74.7106167,44.3326078 C77.0604791,45.7925319 80.4169108,44.59373 83.1821256,45.6865016 C84.1928965,46.0854633 84.924565,48.3948283 85.6898458,50.2422724 C87.7948183,55.32502 90.0048293,61.7330272 90.9879901,66.5834665 C91.2100716,67.6886981 91.8150936,70.096845 91.6794438,71.0804712 C91.4375551,72.8416534 89.0432764,74.1475639 87.8254295,75.2366214 C85.5818062,77.2482029 84.1688877,79.0183706 81.8286289,80.899361 C80.8796806,79.5011981 78.8431333,78.561901 78.0670485,77.4249201 Z M25.0568552,126.527157 C22.4133051,123.624201 22.9666481,118.184904 23.2866856,114.315096 C28.0649791,117.315096 34.4071465,114.077875 34.3473645,108.97524 C36.6286817,109.035743 35.1996173,111.81889 34.7869659,113.611821 C33.438391,119.468051 37.0589196,125.830471 34.9511261,131.185903 C30.8585843,130.876198 27.4963904,129.207867 25.0568552,126.527157 Z M43.9720165,143.375799 C37.9874003,141.682907 30.3174257,137.342851 27.8582032,131.977236 C29.762462,132.253395 31.0843871,133.211861 32.9628965,133.330471 C33.672837,133.376597 34.6029383,133.033347 35.4188778,133.235823 C37.0448744,133.638379 38.417158,137.276957 39.6438282,138.630791 C40.839587,139.952875 42.2768144,140.517772 43.2603954,141.723043 C43.8923073,142.027356 44.8266101,142.00639 44.8625033,142.953474 C44.5886228,143.245807 44.300217,143.46865 43.9720165,143.375799 Z M75.1253689,141.783546 C68.9136894,145.28135 58.399571,147.91234 51.7919862,144.6248 C46.4603497,141.971645 39.2534449,137.581869 36.7963232,132.019169 C39.0916856,126.651158 36.1163937,121.732428 35.926484,116.282348 C35.825647,113.382388 37.2945661,110.850839 37.4071074,107.69389 C36.6216591,106.400559 34.2219185,106.241214 32.5607489,106.329872 C32.0015837,109.122604 31.0226845,112.261581 28.141207,112.576677 C24.0639108,113.021765 21.0827368,109.653954 20.8975088,106.134585 C20.6783084,101.995807 24.0826377,95.1361821 28.9078684,95.6124201 C30.7718524,95.7963259 31.2297605,97.6611422 33.2606657,97.6419728 C34.3614097,95.4500799 31.5627026,94.7617812 31.274777,93.1940895 C31.1997494,92.7891374 31.5068822,91.2064696 31.6855077,90.4642572 C32.5619493,86.8502396 34.5157263,82.1729233 36.438772,79.4215256 C38.8795077,75.9315096 43.6747274,75.4055511 48.8335606,75.0634984 C49.7549587,77.0445288 53.1492643,76.8815895 55.3609559,76.3634185 C52.7103833,77.4111422 50.246179,79.9510783 48.2039895,82.1992812 C45.8582087,84.778754 43.4819967,87.5457268 43.3619526,90.9171326 C47.7948794,84.779353 51.4571834,79.4191294 59.5179615,76.7192492 C65.6172797,74.6777157 72.7406938,77.6549521 77.4272137,80.9394968 C79.3719273,82.3047125 80.5327533,84.4708466 81.9150606,86.4536741 C87.0871586,93.8787939 89.5006443,104.477037 88.9700496,114.749401 C88.7515694,118.985823 88.7611729,123.207867 87.3368502,126.058107 C85.848304,129.038339 80.8136564,131.704673 77.8665749,129.008986 C77.3203744,131.907149 80.3172742,133.699481 83.8375661,132.65655 C81.3274449,135.889577 78.6930782,139.774361 75.1253689,141.783546 Z M86.6982159,46.1961661 C91.5521971,48.6044928 100.621525,52.6784545 103.664642,46.1873003 C104.787654,43.7946086 106.105138,39.7499401 106.686751,37.2800319 C107.508453,33.7955272 105.796024,26.4715256 102.207307,25.3022564 C99.0375441,24.2696286 95.3389868,24.332528 91.5209857,25.0979832 C91.0714207,25.4711861 90.570837,26.1217452 90.2209086,26.7998602 C87.4947081,26.9054113 84.9419714,26.6538139 82.7883811,25.5353435 C82.9924559,23.5231629 81.6287555,23.2002196 80.3502863,22.7858027 C79.4025385,19.0352636 82.2463822,14.1373802 81.5657324,10.7174521 C81.0801542,8.28103035 78.076652,7.90429313 75.8690419,7.44848243 C75.7970154,6.09452875 75.9656773,4.96432308 76.1163326,3.81888978 C75.6115474,1.9625619 73.3475165,0.905816693 71.2023293,0.64701278 C64.1443392,-0.200070288 53.4278265,-0.580555711 46.6389752,1.85586062 C44.74456,6.49349042 43.2521724,12.1341254 41.6742533,17.4297724 C35.0531035,16.7240415 29.6979983,20.2810903 24.6496057,22.6114816 C22.9017043,23.4201877 20.483717,23.8656949 19.8307373,25.2542732 C19.197685,26.5986422 19.4567401,29.1751797 19.2996624,31.6090256 C18.8999157,37.8252796 18.5576101,43.8210863 16.9128265,50.1859026 C16.1743155,53.0420727 14.8870831,55.5623003 13.9890936,58.314357 C13.159109,60.865016 11.7089769,64.0171725 11.3307781,66.5607029 C10.7699923,70.3304712 14.3267175,70.5401358 16.6010121,72.173722 C20.1167423,74.6998802 22.876375,76.096845 26.6839923,78.3767971 C27.8117461,79.0519169 31.2126542,80.7609824 31.5994961,81.548123 C32.3684983,83.1086262 30.2794917,85.3089058 29.7209868,86.5321486 C28.8375226,88.4664537 28.3767935,90.1096246 28.250207,92.0181709 C25.0561349,92.5219649 22.6348464,94.4191294 21.1722896,96.5583067 C18.7529218,100.098642 17.0750661,106.648562 19.1683343,111.630791 C19.3324945,112.023163 20.1511949,112.794728 20.2719593,113.397364 C20.5101867,114.584065 19.8236547,116.161941 19.7809791,117.424121 C19.5610584,123.89976 20.8787819,129.479233 25.2467649,131.432109 C27.0199956,138.482228 33.3666046,140.826278 39.3460589,144.330072 C41.5812192,145.639577 44.0451233,146.476438 46.5897572,147.410942 C55.718027,150.763778 69.7233866,150.132388 77.2993667,144.413938 C80.5117456,141.989018 85.64663,136.86901 87.483304,133.162141 C92.3342841,123.375599 91.9897577,107.019968 88.5967126,95.1152157 C88.1405452,93.5169728 87.4791024,91.1675319 86.5553634,89.2476038 C85.9113271,87.9069489 83.9095925,85.2244409 84.1526817,84.0407348 C84.4029736,82.816893 88.7167566,79.5479233 89.641696,78.6577476 C91.3073073,77.0541134 94.4716685,74.9257188 94.7279626,72.9021565 C95.0034637,70.7486022 93.7772137,67.802516 93.1559857,65.7244409 C91.0792236,58.789397 89.05288,52.3789337 86.6982159,46.1961661 Z" id="path130" fill="#231F20"></path>
                            <path d="M54.3145319,94.2022764 C54.5778486,94.5521166 56.0256399,95.0834665 58.0513833,94.110024 C58.0513833,94.110024 55.6505022,93.7104633 55.8502555,89.7154553 L54.8498084,89.9155351 C54.8498084,89.9155351 53.8158689,93.5379393 54.3145319,94.2022764" id="path132" fill="#F7E4CD"></path>
                            <path d="M71.8565694,59.8646166 C71.8565694,59.2583267 71.3637885,58.7666933 70.7557654,58.7666933 C70.1483425,58.7666933 69.6555617,59.2583267 69.6555617,59.8646166 C69.6555617,60.4708466 70.1483425,60.9632588 70.7557654,60.9632588 C71.3637885,60.9632588 71.8565694,60.4708466 71.8565694,59.8646166" id="path134" fill="#1D1919"></path>
                            <path d="M72.9567731,54.7727636 C72.9567731,54.1664736 72.4639923,53.6748403 71.8559692,53.6748403 C71.2485463,53.6748403 70.7557654,54.1664736 70.7557654,54.7727636 C70.7557654,55.3790535 71.2485463,55.8714058 71.8559692,55.8714058 C72.4639923,55.8714058 72.9567731,55.3790535 72.9567731,54.7727636" id="path136" fill="#1D1919"></path>
                        </g>
                    </g>
                </g>
                <rect id="Rectangle-Copy-6" fill="#FFFFFF" fill-rule="nonzero" style="mix-blend-mode: color;" x="0" y="0" width="150" height="150"></rect>
            </g>
        </g>
    </g>
</svg>