<?xml version="1.0" encoding="UTF-8"?>
<svg width="150px" height="150px" viewBox="0 0 150 150" version="1.1" xmlns="http://www.w3.org/2000/svg" xmlns:xlink="http://www.w3.org/1999/xlink">
    <!-- Generator: Sketch 52.4 (67378) - http://www.bohemiancoding.com/sketch -->
    <title>MONGO</title>
    <desc>Created with Sketch.</desc>
    <g id="Page-1" stroke="none" stroke-width="1" fill="none" fill-rule="evenodd">
        <g id="Greyscale" transform="translate(-658.000000, -249.000000)">
            <g id="MONGO" transform="translate(658.000000, 249.000000)">
                <g id="mongodb-svg-vector-logo" transform="translate(42.000000, 0.000000)">
                    <path d="M36.9935729,150 L32.9979611,148.633101 C32.9979611,148.633101 33.4859263,128.244844 26.1748966,126.781744 C21.3026371,121.122803 26.956486,-113.205777 44.5,126.000508 C44.5,126.000508 38.4564126,129.023966 37.3843676,134.19556 C36.2140959,139.268838 36.9935729,150 36.9935729,150 Z" id="Path" fill="#FFFFFF"></path>
                    <path d="M36.9935729,150 L32.9979611,148.633101 C32.9979611,148.633101 33.4859263,128.244844 26.1748966,126.781744 C21.3026371,121.122803 26.956486,-113.205777 44.5,126.000508 C44.5,126.000508 38.4564126,129.023966 37.3843676,134.19556 C36.2140959,139.268838 36.9935729,150 36.9935729,150 Z" id="Path" fill="#A6A385"></path>
                    <path d="M39.1073928,130.368069 C39.1073928,130.368069 73.9092374,107.303755 65.7649965,59.3186732 C57.9138348,24.4315032 39.3983711,12.9973055 37.3625735,8.59921136 C35.1334907,5.47193659 33,0 33,0 L34.4548915,97.0418884 C34.4548915,97.1403769 31.4495164,126.751528 39.1084433,130.369128" id="Path" fill="#FFFFFF"></path>
                    <path d="M39.1073928,130.368069 C39.1073928,130.368069 73.9092374,107.303755 65.7649965,59.3186732 C57.9138348,24.4315032 39.3983711,12.9973055 37.3625735,8.59921136 C35.1334907,5.47193659 33,0 33,0 L34.4548915,97.0418884 C34.4548915,97.1403769 31.4495164,126.751528 39.1084433,130.369128" id="Path" fill="#499D4A"></path>
                    <path d="M31.0126554,131.879195 C31.0126554,131.879195 -1.86813177,109.427193 0.0835702541,69.8936883 C1.9369471,30.3591254 25.1575493,10.9335164 29.6456181,7.41947407 C32.5731712,4.29576336 32.6704391,3.12371071 32.8660322,0 C34.9150022,4.39308181 34.5248732,65.6963012 34.816677,72.9190227 C35.6942028,100.739406 33.2561612,126.609189 31.0126554,131.879195 Z" id="Path" fill="#FFFFFF"></path>
                    <path d="M31.0126554,131.879195 C31.0126554,131.879195 -1.86813177,109.427193 0.0835702541,69.8936883 C1.9369471,30.3591254 25.1575493,10.9335164 29.6456181,7.41947407 C32.5731712,4.29576336 32.6704391,3.12371071 32.8660322,0 C34.9150022,4.39308181 34.5248732,65.6963012 34.816677,72.9190227 C35.6942028,100.739406 33.2561612,126.609189 31.0126554,131.879195 Z" id="Path" fill="#58AA50"></path>
                </g>
                <rect id="Rectangle-Copy-6" fill="#FFFFFF" fill-rule="nonzero" style="mix-blend-mode: color;" x="0" y="0" width="150" height="150"></rect>
            </g>
        </g>
    </g>
</svg>