<?xml version="1.0" encoding="UTF-8"?>
<svg width="150px" height="150px" viewBox="0 0 150 150" version="1.1" xmlns="http://www.w3.org/2000/svg" xmlns:xlink="http://www.w3.org/1999/xlink">
    <!-- Generator: Sketch 52.4 (67378) - http://www.bohemiancoding.com/sketch -->
    <title>MUI</title>
    <desc>Created with Sketch.</desc>
    <g id="Page-1" stroke="none" stroke-width="1" fill="none" fill-rule="evenodd">
        <g id="Greyscale" transform="translate(-496.000000, -51.000000)">
            <g id="MUI" transform="translate(496.000000, 51.000000)">
                <g id="material-ui-logo" transform="translate(0.000000, 15.000000)">
                    <polygon id="Path" fill="#00B0FF" points="0 65.3584906 0 0 56.25 32.6792453 56.25 54.4654088 18.75 32.6792453 18.75 76.2515723"></polygon>
                    <polygon id="Path" fill="#0081CB" points="56.25 32.6792453 112.5 0 112.5 65.3584906 75 87.1446541 56.25 76.2515723 93.75 54.4654088 93.75 32.6792453 56.25 54.4654088"></polygon>
                    <polygon id="Path" fill="#00B0FF" points="56.25 76.2515723 56.25 98.0377358 93.75 119.823899 93.75 98.0377358"></polygon>
                    <path d="M93.75,119.823899 L150,87.1446541 L150,43.572327 L131.25,54.4654088 L131.25,76.2515723 L93.75,98.0377358 L93.75,119.823899 Z M131.25,32.6792453 L131.25,10.8930818 L150,5.68434189e-14 L150,21.7861635 L131.25,32.6792453 Z" id="Shape" fill="#0081CB" fill-rule="nonzero"></path>
                </g>
                <rect id="Rectangle-Copy" fill="#FFFFFF" fill-rule="nonzero" style="mix-blend-mode: color;" x="0" y="0" width="150" height="150"></rect>
            </g>
        </g>
    </g>
</svg>