<?xml version="1.0" encoding="UTF-8"?>
<svg width="150px" height="150px" viewBox="0 0 150 150" version="1.1" xmlns="http://www.w3.org/2000/svg" xmlns:xlink="http://www.w3.org/1999/xlink">
    <!-- Generator: Sketch 52.4 (67378) - http://www.bohemiancoding.com/sketch -->
    <title>NODEJS</title>
    <desc>Created with Sketch.</desc>
    <g id="Page-1" stroke="none" stroke-width="1" fill="none" fill-rule="evenodd">
        <g id="Greyscale" transform="translate(-178.000000, -55.000000)">
            <g id="NODEJS" transform="translate(178.000000, 55.000000)">
                <g id="node" transform="translate(9.000000, 0.000000)" fill="#679E63">
                    <path d="M66.2585567,149.890909 C64.2571219,149.892032 62.2906409,149.365299 60.556701,148.363636 L42.403299,137.604545 C39.6816495,136.090909 41.0424742,135.545455 41.9134021,135.231818 C44.7810013,134.335332 47.5243027,133.079969 50.0783505,131.495455 C50.5186691,131.284699 51.0378944,131.326322 51.4391753,131.604545 L65.3740206,139.895455 C65.9002563,140.181584 66.5352077,140.181584 67.0614433,139.895455 L121.426392,108.45 C121.941761,108.13901 122.256782,107.580115 122.256495,106.977273 L122.256495,44.1136364 C122.258062,43.4997503 121.937688,42.9301704 121.412784,42.6136364 L67.0750515,11.25 C66.5571716,10.9503841 65.9191171,10.9503841 65.4012371,11.25 L11.0635052,42.6136364 C10.5333743,42.9267784 10.2074741,43.4969861 10.2061856,44.1136364 L10.2061856,106.977273 C10.2051184,107.583888 10.5336367,108.143001 11.0635052,108.436364 L25.9509278,117.054545 C34.0342268,121.145455 38.9876289,116.331818 38.9876289,111.6 L38.9876289,49.4727273 C38.9876131,49.0544461 39.1543578,48.6534924 39.4507924,48.3590061 C39.747227,48.0645198 40.1487826,47.9009082 40.5661856,47.9045455 L47.4519588,47.9045455 C47.8693617,47.9009082 48.2709174,48.0645198 48.5673519,48.3590061 C48.8637865,48.6534924 49.0305312,49.0544461 49.0305155,49.4727273 L49.0305155,111.545455 C49.0305155,122.359091 43.1653608,128.55 32.9319588,128.55 C29.7884536,128.55 27.3253608,128.55 20.4123711,125.140909 L6.15092784,116.959091 C2.6252183,114.893482 0.455512575,111.110705 0.449072165,107.018182 L0.449072165,44.1545455 C0.449241984,40.0639153 2.62125851,36.2823043 6.15092784,34.2272727 L60.4886598,2.7 C64.0505075,0.749993348 68.3577399,0.749993348 71.9195876,2.7 L126.284536,34.1863636 C129.812162,36.2434339 131.983436,40.0237527 131.986392,44.1136364 L131.986392,106.977273 C131.977192,111.069055 129.808218,114.850557 126.284536,116.918182 L71.9195876,148.363636 C70.1971591,149.357214 68.2459763,149.883618 66.2585567,149.890909 Z" id="Path"></path>
                    <path d="M82.9830928,106.581818 C59.1958763,106.581818 54.2152577,95.6727273 54.2152577,86.4681818 C54.2115909,86.0511586 54.3752911,85.6501469 54.6695745,85.3552555 C54.9638579,85.0603641 55.3640428,84.8963256 55.7802062,84.9 L62.8156701,84.9 C63.6061472,84.8932365 64.2775379,85.4782607 64.3806186,86.2636364 C65.4420619,93.4363636 68.5991753,97.0636364 82.9830928,97.0636364 C94.4412371,97.0636364 99.3129897,94.4590909 99.3129897,88.3772727 C99.3129897,84.8590909 97.9521649,82.2545455 80.1389691,80.5090909 C65.2651546,79.0363636 56.0659794,75.7363636 56.0659794,63.8181818 C56.0659794,52.8272727 65.3059794,46.2681818 80.8057732,46.2681818 C98.2243299,46.2681818 106.838351,52.3227273 107.92701,65.3590909 C107.965545,65.7988409 107.817331,66.2344997 107.518763,66.5590909 C107.21897,66.8796937 106.800509,67.0622236 106.362062,67.0636364 L99.3129897,67.0636364 C98.5810502,67.0620433 97.9479819,66.5522767 97.788866,65.8363636 C96.0878351,58.2954545 91.9781443,55.8818182 80.8057732,55.8818182 C68.2997938,55.8818182 66.8437113,60.2454545 66.8437113,63.5181818 C66.8437113,67.4727273 68.5583505,68.6318182 85.4461856,70.8681818 C102.334021,73.1045455 110.090722,76.2136364 110.090722,87.9818182 C110.090722,99.75 100.279175,106.581818 82.9830928,106.581818 Z" id="Path"></path>
                </g>
                <rect id="Rectangle" fill="#FFFFFF" fill-rule="nonzero" style="mix-blend-mode: color;" x="0" y="0" width="150" height="150"></rect>
            </g>
        </g>
    </g>
</svg>