<?xml version="1.0" encoding="UTF-8"?>
<svg width="150px" height="150px" viewBox="0 0 150 150" version="1.1" xmlns="http://www.w3.org/2000/svg" xmlns:xlink="http://www.w3.org/1999/xlink">
    <!-- Generator: Sketch 52.4 (67378) - http://www.bohemiancoding.com/sketch -->
    <title>PS</title>
    <desc>Created with Sketch.</desc>
    <g id="Page-1" stroke="none" stroke-width="1" fill="none" fill-rule="evenodd">
        <g id="Greyscale" transform="translate(-178.000000, -249.000000)">
            <g id="PS" transform="translate(178.000000, 249.000000)">
                <g id="Adobe_Photoshop_CC_icon" transform="translate(0.000000, 2.000000)">
                    <polygon id="Path" fill="#001D26" points="6.25 6.23931624 143.75 6.23931624 143.75 139.760684 6.25 139.760684"></polygon>
                    <path d="M0,0 L0,146 L150,146 L150,0 L0,0 Z M6.25,6.23931624 L143.75,6.23931624 L143.75,139.760684 L6.25,139.760684 L6.25,6.23931624 Z M36.25,34.191453 C36.25,33.7547009 37.125,33.442735 37.625,33.442735 C41.625,33.2555556 47.5625,33.1307692 53.75,33.1307692 C71.0625,33.1307692 77.8125,42.6145299 77.8125,54.7811966 C77.8125,70.6290598 66.3125,77.4299145 52.1875,77.4299145 C49.8125,77.4299145 49,77.3051282 47.3125,77.3051282 L47.3125,101.264103 C47.3125,101.763248 47.125,102.012821 46.5625,102.012821 L37,102.012821 C36.5,102.012821 36.25,101.825641 36.25,101.264103 L36.25,34.191453 Z M47.375,67.3222222 C48.8125,67.4470085 49.9375,67.4470085 52.4375,67.4470085 C59.75,67.4470085 66.625,64.8888889 66.625,54.9683761 C66.625,47.0444444 61.6875,43.0512821 53.375,43.0512821 C50.875,43.0512821 48.5,43.1760684 47.375,43.2384615 L47.375,67.3222222 Z M101.125,59.8974359 C96.1875,59.8974359 94.5,62.3931624 94.5,64.4521368 C94.5,66.6982906 95.625,68.2581197 102.25,71.6897436 C112.0625,76.4316239 115.125,80.9863248 115.125,87.6623932 C115.125,97.6452991 107.5,103.011111 97.1875,103.011111 C91.75,103.011111 87.0625,101.888034 84.375,100.328205 C83.9375,100.141026 83.875,99.8290598 83.875,99.3299145 L83.875,90.1581197 C83.875,89.534188 84.1875,89.3470085 84.625,89.6589744 C88.5625,92.217094 93.0625,93.3401709 97.1875,93.3401709 C102.125,93.3401709 104.1875,91.2811966 104.1875,88.4735043 C104.1875,86.2273504 102.75,84.2307692 96.4375,80.9863248 C87.5625,76.7435897 83.875,72.4384615 83.875,65.2632479 C83.875,57.2145299 90.1875,50.5384615 101.125,50.5384615 C106.5,50.5384615 110.25,51.3495726 112.3125,52.2854701 C112.8125,52.5974359 112.9375,53.0965812 112.9375,53.5333333 L112.9375,62.0811966 C112.9375,62.5803419 112.625,62.8923077 112,62.7051282 C109.25,60.9581197 105.1875,59.8974359 101.125,59.8974359 Z" id="Shape" fill="#00C8FF" fill-rule="nonzero"></path>
                </g>
                <rect id="Rectangle-Copy-6" fill="#FFFFFF" fill-rule="nonzero" style="mix-blend-mode: color;" x="0" y="0" width="150" height="150"></rect>
            </g>
        </g>
    </g>
</svg>