<?xml version="1.0" encoding="UTF-8"?>
<svg width="159px" height="164px" viewBox="0 0 159 164" version="1.1" xmlns="http://www.w3.org/2000/svg" xmlns:xlink="http://www.w3.org/1999/xlink">
    <!-- Generator: Sketch 52.4 (67378) - http://www.bohemiancoding.com/sketch -->
    <title>PSQL</title>
    <desc>Created with Sketch.</desc>
    <g id="Page-1" stroke="none" stroke-width="1" fill="none" fill-rule="evenodd">
        <g id="Greyscale" transform="translate(-1159.000000, -242.000000)">
            <g id="PSQL" transform="translate(1163.000000, 249.000000)">
                <g id="Postgresql_elephant" transform="translate(3.000000, 0.000000)">
                    <path d="M111.754356,112.034268 C112.791692,103.399756 112.480821,102.133537 118.917576,103.532195 L120.551755,103.67561 C125.501162,103.90061 131.975631,102.880244 135.779318,101.114634 C143.967424,97.3185366 148.822727,90.9804878 140.748864,92.6458537 C122.332033,96.4419512 121.065846,90.2110976 121.065846,90.2110976 C140.513056,61.3807317 148.642576,24.7832927 141.625455,15.825 C122.486187,-8.61 89.3566162,2.9447561 88.8022475,3.2447561 L88.6257576,3.27731707 C84.9868434,2.52292683 80.9143939,2.07219512 76.3395707,1.99829268 C68.0053662,1.86146341 61.6813889,4.18134146 56.8843056,7.81682927 C56.8843056,7.81682927 -2.21710859,-16.5117073 0.53239899,38.412439 C1.11715909,50.0963415 17.2941793,126.822805 36.5883333,103.647805 C43.6402399,95.1735366 50.4552399,88.0082927 50.4552399,88.0082927 C53.8393056,90.2546341 57.8908838,91.4004878 62.1401894,90.9889024 L62.4686364,90.7090244 C62.3657449,91.7612195 62.411149,92.7903659 62.6000884,94.0086585 C57.6305429,99.557561 59.0907955,100.531829 49.1535354,102.575488 C39.0998359,104.645854 45.0063889,108.331829 48.8617045,109.295122 C53.5368561,110.463293 64.3521717,112.118049 71.6618561,101.896098 L71.3707576,103.062439 C73.3205682,104.620976 73.18875,114.264512 73.465202,121.154634 C73.7420202,128.045122 74.20375,134.475 75.6094444,138.265976 C77.0151389,142.05622 78.673851,151.820854 91.7337374,149.024268 C102.648649,146.687195 110.993838,143.323537 111.754356,112.033902" id="Path" stroke="#000000" stroke-width="13.6812073" fill="#000000"></path>
                    <path d="M140.750694,92.645122 C122.332033,96.4412195 121.065846,90.2103659 121.065846,90.2103659 C140.513056,61.3781707 148.642576,24.78 141.626919,15.8228049 C122.487652,-8.61073171 89.3566162,2.9447561 88.8037121,3.2447561 L88.6257576,3.27658537 C84.9868434,2.52182927 80.9143939,2.07219512 76.3373737,1.99756098 C68.0031692,1.86109756 61.6813889,4.18060976 56.8843056,7.81536585 C56.8843056,7.81536585 -2.21820707,-16.5120732 0.530568182,38.4117073 C1.11532828,50.0963415 17.2919823,126.822805 36.5868687,103.647805 C43.6391414,95.1735366 50.4530429,88.0082927 50.4530429,88.0082927 C53.8374747,90.2546341 57.889053,91.4004878 62.1365278,90.9889024 L62.4664394,90.7090244 C62.3639141,91.7612195 62.4107828,92.7903659 62.5986237,94.0086585 C57.6279798,99.557561 59.0885985,100.531829 49.1520707,102.575488 C39.0976389,104.645854 45.0041919,108.331829 48.8606061,109.295122 C53.5357576,110.463293 64.3518056,112.118049 71.6600253,101.896098 L71.3685606,103.062439 C73.3161742,104.620976 74.6837879,113.20061 74.4545707,120.977927 C74.2253535,128.75561 74.072298,134.095244 75.6068813,138.265976 C77.1414646,142.436707 78.6709217,151.820854 91.7333712,149.024268 C102.648283,146.687195 108.304381,140.630854 109.091263,130.528537 C109.649659,123.346463 110.913283,124.408171 110.993106,117.987073 L112.006641,114.947195 C113.175429,105.211463 112.192285,102.07061 118.916843,103.531463 L120.551023,103.674878 C125.500429,103.899878 131.978194,102.879512 135.780051,101.113902 C143.966692,97.3178049 148.821995,90.9797561 140.749962,92.645122 L140.750694,92.645122 Z" id="Path" fill="#336791"></path>
                    <path d="M72.4509343,98.2258537 C71.9438005,116.341463 72.5783586,134.583293 74.3524116,139.016707 C76.1275631,143.450122 79.9264899,152.073293 92.9900379,149.277073 C103.903851,146.939268 107.874874,142.415122 109.59803,132.429146 C110.867146,125.082073 113.313838,104.677683 113.627639,100.497073" id="Path" stroke="#FFFFFF" stroke-width="4.56040244" stroke-linecap="round" stroke-linejoin="round"></path>
                    <path d="M56.7931313,7.41073171 C56.7931313,7.41073171 -2.34965909,-16.7414634 0.399848485,38.1823171 C0.984608586,49.8669512 17.1623611,126.595976 36.4568813,103.419878 C43.5076894,94.9445122 49.8843939,88.2973171 49.8843939,88.2973171" id="Path" stroke="#FFFFFF" stroke-width="4.56040244" stroke-linecap="round" stroke-linejoin="round"></path>
                    <path d="M88.7389015,3.00256098 C86.6916919,3.64390244 121.63779,-9.76170732 141.49803,15.5941463 C148.513321,24.5517073 140.383801,61.149878 120.936957,89.9828049" id="Path" stroke="#FFFFFF" stroke-width="4.56040244" stroke-linecap="round" stroke-linejoin="round"></path>
                    <path d="M120.936591,89.9828049 C120.936591,89.9828049 122.203876,96.2154878 140.622904,92.4168293 C148.693106,90.7514634 143.836338,97.0902439 135.651528,100.888171 C128.934293,104.003049 113.874432,104.801341 113.628371,100.497073 C112.995278,89.3915854 121.554672,92.7654878 120.936957,89.9828049 C120.378561,87.4767073 116.550707,85.0170732 114.018699,78.8835366 C111.808182,73.53 83.7019823,32.4753659 121.813182,38.5726829 C123.209356,38.2840244 111.873359,2.35243902 76.206654,1.76817073 C40.5480051,1.18390244 41.7178914,45.5835366 41.7178914,45.5835366" id="Path" stroke="#FFFFFF" stroke-width="4.56040244" stroke-linecap="round" stroke-linejoin="bevel"></path>
                    <path d="M62.4686364,93.7807317 C57.4972601,99.3292683 58.9593434,100.303537 49.0220833,102.347927 C38.9676515,104.418659 44.8749369,108.103902 48.7302525,109.066829 C53.405404,110.235732 64.221452,111.890488 71.5296717,101.665976 C73.755202,98.5529268 71.5164899,93.5857317 68.4594066,92.3195122 C66.9823106,91.7081707 65.0072348,90.9420732 62.4686364,93.7807317 Z" id="Path" stroke="#FFFFFF" stroke-width="4.56040244" stroke-linecap="round" stroke-linejoin="round"></path>
                    <path d="M62.1431187,93.6837805 C61.6422096,90.4214634 63.2159722,86.5393902 64.9025126,81.9976829 C67.4370833,75.1832927 73.2850505,68.3678049 68.6069697,46.7517073 C65.1200126,30.6435366 41.7321717,43.3993902 41.7175253,45.5835366 C41.7032449,47.7669512 42.7753662,56.6542683 41.3268308,67.0035366 C39.4367045,80.5082927 49.9272348,91.929878 62.0072727,90.7613415" id="Path" stroke="#FFFFFF" stroke-width="4.56040244" stroke-linecap="round" stroke-linejoin="round"></path>
                    <path d="M56.5781944,45.2560976 C56.4727399,46.0020732 57.9450758,47.9926829 59.8648611,48.2586585 C61.781351,48.5257317 63.4217551,46.970122 63.5257449,46.224878 C63.6297348,45.4789024 62.1592298,44.6571951 60.2387121,44.390122 C58.3211237,44.1226829 56.6799874,44.5119512 56.5785606,45.2560976 L56.5781944,45.2560976 Z" id="Path" stroke="#FFFFFF" stroke-width="1.52012195" fill="#FFFFFF"></path>
                    <path d="M114.953144,43.7352439 C115.057134,44.4812195 113.586629,46.4718293 111.666477,46.7378049 C109.748523,47.004878 108.108119,45.4492683 108.00303,44.7040244 C107.901604,43.9580488 109.372475,43.1363415 111.290795,42.8692683 C113.209116,42.6021951 114.849154,42.9910976 114.953144,43.7356098 L114.953144,43.7352439 Z" id="Path" stroke="#FFFFFF" stroke-width="0.760060976" fill="#FFFFFF"></path>
                    <path d="M121.813182,38.5726829 C122.129179,44.4241463 120.551755,48.4097561 120.352929,54.6387805 C120.058535,63.6929268 124.67327,74.0560976 117.719861,84.4320732" id="Path" stroke="#FFFFFF" stroke-width="4.56040244" stroke-linecap="round" stroke-linejoin="round"></path>
                </g>
                <rect id="Rectangle-Copy-6" fill="#FFFFFF" fill-rule="nonzero" style="mix-blend-mode: color;" x="0" y="0" width="150" height="150"></rect>
            </g>
        </g>
    </g>
</svg>