<?xml version="1.0" encoding="UTF-8"?>
<svg width="150px" height="150px" viewBox="0 0 150 150" version="1.1" xmlns="http://www.w3.org/2000/svg" xmlns:xlink="http://www.w3.org/1999/xlink">
    <!-- Generator: Sketch 52.4 (67378) - http://www.bohemiancoding.com/sketch -->
    <title>PYTHON</title>
    <desc>Created with Sketch.</desc>
    <defs>
        <linearGradient x1="12.9593594%" y1="11.6996305%" x2="79.6388325%" y2="78.4532626%" id="linearGradient-1">
            <stop stop-color="#387EB8" offset="0%"></stop>
            <stop stop-color="#366994" offset="100%"></stop>
        </linearGradient>
        <linearGradient x1="19.127525%" y1="20.315846%" x2="90.7415328%" y2="88.7730019%" id="linearGradient-2">
            <stop stop-color="#FFE052" offset="0%"></stop>
            <stop stop-color="#FFC331" offset="100%"></stop>
        </linearGradient>
    </defs>
    <g id="Page-1" stroke="none" stroke-width="1" fill="none" fill-rule="evenodd">
        <g id="Greyscale" transform="translate(-496.000000, -249.000000)" fill-rule="nonzero">
            <g id="PYTHON" transform="translate(496.000000, 249.000000)">
                <g id="python" transform="translate(0.000000, 1.000000)">
                    <path d="M74.4525303,0 C36.3766648,2.71095233e-06 38.7543673,16.4775071 38.7543673,16.4775071 L38.7968145,33.5480351 L75.1316868,33.5480351 L75.1316868,38.6734294 L24.3647391,38.6734294 C24.3647391,38.6734294 0,35.9160167 0,74.2546787 C-2.71662597e-06,112.593333 21.2660876,111.233763 21.2660876,111.233763 L33.9578245,111.233763 L33.9578245,93.4431382 C33.9578245,93.4431382 33.2737075,72.2214645 54.8843339,72.2214645 C76.4949576,72.2214645 90.9220752,72.2214645 90.9220752,72.2214645 C90.9220752,72.2214645 111.169428,72.54808 111.169428,52.694136 C111.169428,32.8401973 111.169428,19.8661976 111.169428,19.8661976 C111.169428,19.8661949 114.243535,0 74.4525303,0 Z M54.4174138,11.4791888 C58.0324674,11.4791861 60.9542951,14.3949143 60.9542951,18.0024178 C60.9542978,21.6099214 58.0324674,24.5256469 54.4174138,24.5256469 C50.8023603,24.5256496 47.8805326,21.6099214 47.8805326,18.0024178 C47.8805299,14.3949143 50.8023603,11.4791888 54.4174138,11.4791888 Z" id="path8615" fill="url(#linearGradient-1)"></path>
                    <path d="M75.5474715,149 C113.623347,149 111.245634,132.522494 111.245634,132.522494 L111.203186,115.451968 L74.868315,115.451968 L74.868315,110.326574 L125.635261,110.326574 C125.635261,110.326574 150,113.083978 150,74.745314 C150.000014,36.4066675 128.733913,37.7662371 128.733913,37.7662371 L116.042176,37.7662371 L116.042176,55.5568562 C116.042176,55.5568562 116.726304,76.7785281 95.1156674,76.7785281 C73.5050415,76.7785281 59.0779243,76.7785281 59.0779243,76.7785281 C59.0779243,76.7785281 38.8305719,76.4519126 38.8305719,96.3058685 C38.8305719,116.159797 38.8305719,129.133804 38.8305719,129.133804 C38.8305719,129.133804 35.7564652,149 75.5474715,149 Z M95.5825875,137.520812 C91.9675327,137.520812 89.0457064,134.605088 89.0457064,130.997584 C89.0457064,127.390079 91.9675327,124.474355 95.5825875,124.474355 C99.1976423,124.474355 102.119469,127.390079 102.119469,130.997584 C102.119482,134.605088 99.1976423,137.520812 95.5825875,137.520812 Z" id="path8620" fill="url(#linearGradient-2)"></path>
                </g>
                <rect id="Rectangle-Copy-6" fill="#FFFFFF" style="mix-blend-mode: color;" x="0" y="0" width="150" height="150"></rect>
            </g>
        </g>
    </g>
</svg>