<?xml version="1.0" encoding="UTF-8"?>
<svg width="150px" height="150px" viewBox="0 0 150 150" version="1.1" xmlns="http://www.w3.org/2000/svg" xmlns:xlink="http://www.w3.org/1999/xlink">
    <!-- Generator: Sketch 52.4 (67378) - http://www.bohemiancoding.com/sketch -->
    <title>REACT</title>
    <desc>Created with Sketch.</desc>
    <g id="Page-1" stroke="none" stroke-width="1" fill="none" fill-rule="evenodd">
        <g id="Greyscale" transform="translate(-1612.000000, -55.000000)">
            <g id="REACT" transform="translate(1612.000000, 55.000000)">
                <g id="react" transform="translate(0.000000, 8.000000)" fill="#53C1DE">
                    <path d="M117.787824,46.7652431 C132.087195,51.6963492 141.327808,59.4204425 141.327808,67.4075215 C141.327808,75.7366717 131.452553,83.8805044 116.274627,88.9180793 C115.472663,89.1843703 114.650196,89.4405099 113.812412,89.6886241 C114.111469,90.8925993 114.377769,92.0755643 114.606598,93.2335057 C117.602828,108.395099 115.294972,120.856717 108.193716,124.974787 C101.318225,128.96207 90.2050277,125.045372 78.9530244,115.345815 C77.764807,114.321255 76.5702281,113.228943 75.3737625,112.074779 C74.4506678,112.968553 73.5292225,113.821251 72.611076,114.625318 C60.9945012,124.797259 49.064729,129.01802 41.9564022,124.911755 C35.0745483,120.935566 32.9120974,109.335144 35.6811469,94.725727 C35.9731344,93.1844021 36.3209741,91.6041256 36.7208955,89.991506 C35.4888452,89.6373957 34.2933229,89.2643995 33.1411626,88.8699201 C18.5413197,83.8710614 8.93142182,75.6268979 8.93142182,67.4075215 C8.93142182,59.4492433 17.8833464,51.7768503 31.9003928,46.8813913 C33.4670856,46.3344087 35.1044776,45.8202403 36.8005499,45.3379419 C36.4298507,43.8469008 36.1020424,42.3804114 35.8216025,40.9443754 C32.9175177,26.0769299 34.9609583,14.195816 41.861194,10.1943679 C49.0571878,6.02129418 61.0411629,10.50268 72.9970939,21.136853 C73.7267086,21.7858195 74.4582088,22.4642951 75.1908879,23.1663781 C76.2904945,22.1052271 77.3905734,21.0927073 78.4875885,20.136373 C89.8956012,10.1910628 101.191202,6.03097321 108.098036,10.0208537 C115.3011,14.1818876 117.410527,26.8200897 114.184289,42.5078911 C113.987745,43.4632811 113.766693,44.4351963 113.525844,45.4198595 C114.991202,45.8436116 116.414375,46.2916794 117.787824,46.7652431 Z M114.495837,83.540086 C127.600864,79.1901929 135.671878,72.5345691 135.671878,67.4075215 C135.671878,62.5942162 128.198507,56.347472 115.946819,52.1224621 C114.680126,51.6854899 113.365593,51.2714166 112.011233,50.8788262 C110.382561,56.1581409 108.208563,61.7363247 105.567714,67.4351425 C108.335114,73.2730073 110.596544,78.92343 112.272113,84.2372114 C113.029065,84.0122333 113.771878,83.7801724 114.495837,83.540086 Z M109.05813,94.3338443 C108.851453,93.2873302 108.611548,92.2169722 108.341477,91.125604 C102.857817,92.3954439 96.8109188,93.3255745 90.4105266,93.8945115 C86.771642,99.171466 83.0432051,103.92292 79.3126471,108.010062 C80.4273369,109.08467 81.5384918,110.100022 82.641634,111.050927 C92.2644938,119.346083 101.187195,122.49082 105.359623,120.071537 C107.320345,118.934606 108.906127,116.095821 109.694658,111.837997 C110.57227,107.099527 110.383032,101.0381 109.05813,94.3338443 Z M54.0683425,119.653451 C58.6048705,118.048386 63.7524744,114.857142 68.8892379,110.359231 C69.7258441,109.626459 70.5671643,108.848832 71.4117832,108.032017 C67.5459545,103.876177 63.7098193,99.1299172 60.0464256,93.9662781 C53.6307148,93.4452632 47.6281225,92.5807619 42.2045562,91.3793834 C41.8324431,92.8817562 41.5095837,94.3515499 41.2383346,95.7823926 C38.8701493,108.276354 40.6062844,117.590403 44.7824823,120.003311 C46.7450903,121.136937 49.9918303,121.095625 54.0683425,119.653451 Z M34.9703849,83.508688 C36.0205028,83.8679922 37.1118618,84.2093544 38.2383346,84.5337195 C39.9113119,79.0719206 42.1154753,73.3376911 44.7721131,67.5453888 C42.1494108,61.8378365 39.9761194,56.193552 38.319403,50.7950201 C36.7392773,51.2447403 35.2166536,51.7234976 33.7621367,52.2315281 C21.7746269,56.418294 14.587117,62.5781635 14.587117,67.4075215 C14.587117,69.6768979 16.2450118,72.4736624 19.528751,75.2907291 C23.1831894,78.4255506 28.5146112,81.2983306 34.9703849,83.508688 Z M41.3721917,39.856312 C41.6326001,41.189892 41.9377847,42.5539255 42.2823253,43.9422745 C47.7624509,42.6986386 53.7228594,41.7699249 59.9495684,41.1917806 C63.5804402,36.0585954 67.3814613,31.3479821 71.2282014,27.2103195 C70.5638648,26.5748092 69.9014139,25.9605457 69.2415557,25.3736666 C58.9185387,16.1915825 49.1241163,12.5291361 44.6948154,15.0978534 C40.5365279,17.5091095 38.8840534,27.1182508 41.3721917,39.856312 Z M98.4820107,53.9827223 C99.8196387,56.2974244 101.089867,58.6003227 102.290809,60.884335 C103.964965,56.9577223 105.387195,53.1274276 106.52828,49.4640369 C102.727494,48.5950498 98.6802047,47.8849403 94.4559311,47.3499975 C95.8270225,49.5027529 97.1719564,51.7159433 98.4820107,53.9827223 Z M75.1927729,31.2594545 C72.5432051,34.1232637 69.9080127,37.2800404 67.3357424,40.6778482 C69.909191,40.5574507 72.5113904,40.4951273 75.1296152,40.4951273 C77.7728197,40.4951273 80.3943439,40.5588672 82.983818,40.6813893 C80.4141398,37.2517116 77.8015711,34.0906856 75.1927729,31.2594545 Z M51.7543598,54.0219106 L51.7543598,54.0214384 C53.0665357,51.7421475 54.4225452,49.512668 55.8129615,47.3400824 C51.6155538,47.8648741 47.5873527,48.557278 43.8098979,49.4040741 C44.9608798,53.119401 46.3699136,56.9671653 48.0169678,60.880086 C49.1990573,58.5854501 50.4457188,56.2950636 51.7543598,54.0219106 Z M55.933857,87.8791193 C54.5076198,85.6621516 53.1181461,83.3887628 51.7769835,81.0679232 L51.7767479,81.0679232 C50.4600943,78.7898123 49.2084839,76.4984813 48.0233307,74.2054981 C46.3413983,78.2026973 44.9012569,82.1326148 43.7318931,85.9142782 C47.5084054,86.7377037 51.597172,87.3944599 55.933857,87.8791193 Z M75.3492539,103.955026 C77.9403773,101.097354 80.5435189,97.8874617 83.1216814,94.3779905 C80.495915,94.4950831 77.8282014,94.5559904 75.1296152,94.5559904 C72.5029061,94.5559904 69.9183814,94.5049979 67.3833463,94.405375 C69.9947367,97.8527585 72.6685781,101.057694 75.3492539,103.955026 Z M102.344776,74.0017667 C101.133936,76.3398405 99.8533389,78.6861763 98.5046344,81.0289704 C97.1714848,83.3446166 95.8147688,85.595815 94.4403773,87.7776081 C98.8072271,87.2525802 102.951846,86.5460113 106.790573,85.6687619 C105.606127,81.9515463 104.114375,78.042167 102.344776,74.0017667 Z M93.6054199,78.1984477 C95.672192,74.6080042 97.5749414,71.0133104 99.2943439,67.4629994 C97.5697564,63.9726502 95.6627654,60.4138406 93.5868029,56.8217439 C91.5341713,53.2695439 89.3969361,49.8556831 87.2076193,46.6184053 C83.2713275,46.3176474 79.2285152,46.1608946 75.1296152,46.1608946 L75.1293797,46.1608946 C71.0488611,46.1608946 67.0112332,46.3164671 63.0737625,46.6146281 C60.8505105,49.8757493 58.6986645,53.3007056 56.6540456,56.8524335 L56.6545169,56.8517253 C54.6153181,60.3940103 52.7326001,63.9766638 51.0226238,67.5435005 C52.7330715,71.1020741 54.6207384,74.6807146 56.6717204,78.2293733 L56.671249,78.2293733 C58.7276514,81.7877115 60.8985861,85.2294291 63.1425768,88.5110883 C67.0018066,88.7620345 71.0095055,88.8902229 75.1296152,88.8902229 C79.266457,88.8902229 83.3252941,88.7452734 87.2540455,88.4638741 C89.411076,85.224707 91.5358207,81.7931408 93.6054199,78.1984477 Z M105.272899,14.9292968 C101.110605,12.5248868 91.975098,15.8891722 82.2007066,24.4102501 C81.1890023,25.2924573 80.1730559,26.2273089 79.1556949,27.2077226 C82.9397484,31.2922687 86.7096621,36.0102003 90.3476045,41.1998071 C96.5924584,41.7866862 102.557109,42.7314529 108.049961,44.0010568 C108.267243,43.1089346 108.467321,42.228616 108.645012,41.3643504 C111.430557,27.8196256 109.706442,17.4904597 105.272899,14.9292968 Z" id="Combined-Shape"></path>
                    <path d="M75.1296152,55.5644157 C81.658916,55.5644157 86.95216,60.8666294 86.95216,67.4075215 C86.95216,73.9481776 81.658916,79.2506283 75.1296152,79.2506283 C68.6003145,79.2506283 63.3070699,73.9481776 63.3070699,67.4075215 C63.3070699,60.8666294 68.6003145,55.5644157 75.1296152,55.5644157" id="Path"></path>
                </g>
                <rect id="Rectangle-Copy-6" fill="#FFFFFF" fill-rule="nonzero" style="mix-blend-mode: color;" x="0" y="0" width="150" height="150"></rect>
            </g>
        </g>
    </g>
</svg>