<?xml version="1.0" encoding="UTF-8"?>
<svg width="150px" height="150px" viewBox="0 0 150 150" version="1.1" xmlns="http://www.w3.org/2000/svg" xmlns:xlink="http://www.w3.org/1999/xlink">
    <!-- Generator: Sketch 52.4 (67378) - http://www.bohemiancoding.com/sketch -->
    <title>REDUX</title>
    <desc>Created with Sketch.</desc>
    <g id="Page-1" stroke="none" stroke-width="1" fill="none" fill-rule="evenodd">
        <g id="Greyscale" transform="translate(-1771.000000, -55.000000)" fill-rule="nonzero">
            <g id="REDUX" transform="translate(1771.000000, 55.000000)">
                <g id="redux" transform="translate(0.000000, 3.000000)" fill="#764ABC">
                    <path d="M103.934152,99.4745227 C109.46971,98.9017333 113.669099,94.1284835 113.478217,88.4005839 C113.287336,82.6726844 108.515303,78.0903642 102.788864,78.0903642 L102.407102,78.0903642 C96.4897811,78.2812944 91.9086299,83.2454744 92.0995113,89.1643036 C92.2903928,92.0282536 93.4356803,94.5103433 95.1536121,96.2287134 C88.6636477,109.021022 78.7378201,118.376591 63.8490779,126.204721 C53.7323689,131.550761 43.2338971,133.46006 32.7354253,132.123551 C24.1457666,130.977971 17.4649209,127.159371 13.2655322,120.858682 C7.15733045,111.503112 6.58468652,101.383823 11.7384818,91.2645334 C15.3652266,84.009194 21.0916657,78.6631542 24.7184105,75.9901344 C23.9548853,73.5080447 22.8095975,69.307585 22.2369536,66.2527053 C-5.44083567,86.3003541 -2.5776161,113.412412 5.82116133,126.204721 C12.1202444,135.75122 24.9092919,141.67005 39.0345084,141.67005 C42.8521345,141.67005 46.6697606,141.28819 50.4873867,140.33354 C74.9201936,135.56029 93.4356803,121.049611 103.934152,99.4745227 Z M137.529262,75.7992047 C123.022283,58.8064356 101.643577,49.4508665 77.2107691,49.4508665 L74.1566684,49.4508665 C72.4387365,46.0141268 68.811992,43.7229669 64.8034846,43.7229669 L64.4217223,43.7229669 C58.5044015,43.9138969 53.9232502,48.8780766 54.1141315,54.7969061 C54.3050128,60.5248057 59.0770453,65.1071252 64.8034846,65.1071252 L65.1852475,65.1071252 C69.3846357,64.9161956 73.0113809,62.2431757 74.5384313,58.615506 L77.9742949,58.615506 C92.4812736,58.615506 106.224728,62.8159657 118.632013,71.025955 C128.176078,77.3266446 135.047805,85.5366339 138.865431,95.4649932 C142.110413,103.484053 141.919532,111.312182 138.483669,117.994732 C133.138992,128.114021 124.167571,133.650991 112.332929,133.650991 C104.697677,133.650991 97.4441877,131.35983 93.6265617,129.641461 C91.5268676,131.550761 87.709241,134.60564 85.0369031,136.514941 C93.2447988,140.33354 101.643577,142.43377 109.660591,142.43377 C127.985197,142.43377 141.537769,132.314481 146.691564,122.195191 C152.227122,111.121252 151.84536,92.0282536 137.529262,75.7992047 Z M40.5615588,102.720333 C40.7524402,108.448232 45.5244728,113.030552 51.2509119,113.030552 L51.6326745,113.030552 C57.549995,112.839622 62.1311461,107.875442 61.9402652,101.956613 C61.7493838,96.2287134 56.9773511,91.6463932 51.2509119,91.6463932 L50.8691493,91.6463932 C50.4873867,91.6463932 49.9147428,91.6463932 49.5329802,91.8373234 C41.7068467,78.8540844 38.4618645,64.7252654 39.6071523,49.4508665 C40.3706776,37.9950673 44.1883037,28.066708 50.8691493,19.8567186 C56.4047072,12.7923091 67.0940602,9.35556935 74.3475498,9.16463932 C94.5809684,8.78277939 103.170627,33.9855376 103.743271,44.1048269 C106.224728,44.6776168 110.424117,46.0141268 113.287336,46.9687767 C110.99676,16.0381189 91.9086299,0 73.5840246,0 C56.4047072,0 40.5615588,12.4104491 34.2624758,30.7397278 C25.4819357,55.1787661 31.2083749,78.6631542 41.897728,97.1833632 C40.9433215,98.5198729 40.3706776,100.620103 40.5615588,102.720333 Z" id="Shape"></path>
                </g>
                <rect id="Rectangle-Copy-6" fill="#FFFFFF" style="mix-blend-mode: color;" x="0" y="0" width="150" height="150"></rect>
            </g>
        </g>
    </g>
</svg>