<?xml version="1.0" encoding="UTF-8"?>
<svg width="150px" height="150px" viewBox="0 0 150 150" version="1.1" xmlns="http://www.w3.org/2000/svg" xmlns:xlink="http://www.w3.org/1999/xlink">
    <!-- Generator: Sketch 52.4 (67378) - http://www.bohemiancoding.com/sketch -->
    <title>SCSS</title>
    <desc>Created with Sketch.</desc>
    <g id="Page-1" stroke="none" stroke-width="1" fill="none" fill-rule="evenodd">
        <g id="Greyscale" transform="translate(-817.000000, -55.000000)" fill-rule="nonzero">
            <g id="SCSS" transform="translate(817.000000, 55.000000)">
                <g id="sass" transform="translate(0.000000, 19.000000)" fill="#CD6799">
                    <path d="M129.071038,65.0024272 C123.852459,65.0298544 119.31694,66.2915049 115.519126,68.1565534 C114.125683,65.3864078 112.73224,62.9179612 112.486339,61.107767 C112.213115,58.9958738 111.885246,57.7067961 112.213115,55.1834951 C112.540984,52.6601942 114.016393,49.067233 113.989071,48.7929612 C113.961749,48.5186893 113.661202,47.2296117 110.655738,47.2021845 C107.650273,47.1747573 105.054645,47.7781553 104.754098,48.5735437 C104.453552,49.368932 103.879781,51.1791262 103.497268,53.0441748 C102.978142,55.7868932 97.4863388,65.5783981 94.3442623,70.7072816 C93.3333333,68.7050971 92.4590164,66.9497573 92.2677596,65.5509709 C91.9945355,63.4390777 91.6666667,62.15 91.9945355,59.626699 C92.3224044,57.1033981 93.7978142,53.5104369 93.7704918,53.236165 C93.7431694,52.9618932 93.442623,51.6728155 90.4371585,51.6453883 C87.431694,51.6179612 84.8360656,52.2213592 84.5355191,53.0167476 C84.2349727,53.8121359 83.9071038,55.6771845 83.2786885,57.4873786 C82.6502732,59.2975728 75.3551913,75.6441748 73.442623,79.8679612 C72.4590164,82.0347087 71.6120219,83.7626214 71.010929,84.9419903 C71.010929,84.9419903 71.010929,84.9419903 71.010929,84.9419903 C71.010929,84.9419903 70.9836066,85.0242718 70.9016393,85.1614078 C70.3825137,86.1762136 70.0819672,86.7247573 70.0819672,86.7247573 C70.0819672,86.7247573 70.0819672,86.7247573 70.0819672,86.7521845 C69.6721311,87.4927184 69.2349727,88.1783981 69.0163934,88.1783981 C68.852459,88.1783981 68.5519126,86.2036408 69.0710383,83.5157767 C70.1639344,77.8383495 72.7595628,69.0067961 72.7322404,68.7050971 C72.7322404,68.540534 73.2240437,67.0046117 71.0382514,66.2092233 C68.9071038,65.413835 68.1420765,66.7303398 67.9508197,66.7303398 C67.7595628,66.7303398 67.6229508,67.1966019 67.6229508,67.1966019 C67.6229508,67.1966019 70,57.2679612 63.0874317,57.2679612 C58.7704918,57.2679612 52.8142077,62.0128641 49.863388,66.2915049 C48.0054645,67.3063107 44.0437158,69.4730583 39.8087432,71.8043689 C38.1967213,72.709466 36.5300546,73.6145631 34.9726776,74.4648058 C34.863388,74.3550971 34.7540984,74.2179612 34.6448087,74.1082524 C26.284153,65.1395631 10.8196721,58.8038835 11.4754098,46.7633495 C11.7213115,42.375 13.2240437,30.8555825 41.1748634,16.8677184 C64.1803279,5.48543689 82.4863388,8.63956311 85.6557377,15.6334951 C90.1912568,25.6169903 75.8469945,44.157767 52.0765027,46.8456311 C43.0054645,47.8604369 38.2513661,44.3497573 37.0491803,43.0332524 C35.7923497,41.6618932 35.6010929,41.5796117 35.136612,41.8538835 C34.3715847,42.2652913 34.863388,43.4995146 35.136612,44.2126214 C35.8469945,46.0776699 38.7704918,49.368932 43.715847,50.9871359 C48.0874317,52.4133495 58.715847,53.2087379 71.5846995,48.2169903 C85.9836066,42.6218447 97.2404372,27.0706311 93.9344262,14.0427184 C90.6284153,0.822815534 68.7704918,-3.5381068 48.0874317,3.83980583 C35.7923497,8.22815534 22.4590164,15.1398058 12.8688525,24.1359223 C1.47540984,34.8325243 -0.327868852,44.1303398 0.409836066,48.025 C3.06010929,61.848301 22.0491803,70.8444175 29.6448087,77.5092233 C29.2622951,77.7286408 28.9071038,77.9206311 28.6065574,78.0851942 C24.8087432,79.9776699 10.3278689,87.575 6.72131148,95.611165 C2.62295082,104.71699 7.37704918,111.24466 10.5191257,112.12233 C20.273224,114.837621 30.3005464,109.955583 35.6830601,101.89199 C41.0655738,93.8283981 40.4098361,83.3512136 37.9234973,78.5514563 C37.8961749,78.4966019 37.8688525,78.4417476 37.8142077,78.3868932 C38.7978142,77.8109223 39.8087432,77.2075243 40.7923497,76.6315534 C42.7322404,75.4796117 44.6448087,74.4099515 46.284153,73.5322816 C45.3551913,76.0830097 44.6721311,79.1274272 44.3442623,83.5157767 C43.9344262,88.6720874 46.0382514,95.3643204 48.7978142,97.9973301 C50.0273224,99.1492718 51.4754098,99.176699 52.4043716,99.176699 C55.6284153,99.176699 57.0765027,96.488835 58.6885246,93.3072816 C60.6557377,89.4126214 62.431694,84.8871359 62.431694,84.8871359 C62.431694,84.8871359 60.2185792,97.1196602 66.2295082,97.1196602 C68.4153005,97.1196602 70.6284153,94.267233 71.6120219,92.8135922 C71.6120219,92.8410194 71.6120219,92.8410194 71.6120219,92.8410194 C71.6120219,92.8410194 71.6666667,92.7587379 71.7759563,92.5667476 C71.9945355,92.2101942 72.1311475,91.9907767 72.1311475,91.9907767 C72.1311475,91.9907767 72.1311475,91.9633495 72.1311475,91.9359223 C73.0054645,90.4 74.9726776,86.9167476 77.8961749,81.1296117 C81.6666667,73.6694175 85.3005464,64.3441748 85.3005464,64.3441748 C85.3005464,64.3441748 85.6284153,66.6206311 86.7486339,70.4055825 C87.4043716,72.6271845 88.7704918,75.0682039 89.863388,77.4269417 C88.989071,78.661165 88.442623,79.3468447 88.442623,79.3468447 C88.442623,79.3468447 88.442623,79.3468447 88.4699454,79.3742718 C87.7595628,80.3067961 86.9945355,81.3216019 86.147541,82.3089806 C83.1693989,85.8745146 79.6174863,89.961165 79.1256831,91.140534 C78.5519126,92.5393204 78.6885246,93.5541262 79.7814208,94.3769417 C80.5737705,94.9803398 81.9945355,95.0626214 83.442623,94.9803398 C86.1202186,94.7883495 88.0054645,94.1300971 88.9344262,93.7186893 C90.3825137,93.1975728 92.0765027,92.4021845 93.6612022,91.2228155 C96.5846995,89.056068 98.3606557,85.9567961 98.1967213,81.8701456 C98.1147541,79.6211165 97.3770492,77.3720874 96.4754098,75.2601942 C96.7486339,74.8762136 96.9945355,74.492233 97.2677596,74.1082524 C101.885246,67.3337379 105.464481,59.9009709 105.464481,59.9009709 C105.464481,59.9009709 105.79235,62.1774272 106.912568,65.9623786 C107.459016,67.8822816 108.579235,69.9667476 109.562842,71.9963592 C105.218579,75.534466 102.540984,79.6485437 101.584699,82.3364078 C99.863388,87.3281553 101.202186,89.5771845 103.743169,90.098301 C104.89071,90.3451456 106.530055,89.7966019 107.73224,89.2754854 C109.262295,88.7817961 111.065574,87.9315534 112.786885,86.6699029 C115.710383,84.5031553 118.52459,81.486165 118.360656,77.3995146 C118.278689,75.534466 117.786885,73.6968447 117.103825,71.9140777 C120.79235,70.3781553 125.546448,69.5279126 131.612022,70.2410194 C144.617486,71.7769417 147.185792,79.9228155 146.693989,83.3512136 C146.202186,86.7796117 143.469945,88.6446602 142.568306,89.2206311 C141.666667,89.7966019 141.36612,89.9885922 141.448087,90.4 C141.557377,91.0033981 141.994536,90.9759709 142.759563,90.8662621 C143.825137,90.6742718 149.590164,88.0961165 149.836066,81.7878641 C150.245902,73.7242718 142.595628,64.9201456 129.071038,65.0024272 Z M28.7431694,98.9572816 C24.4262295,103.674757 18.4153005,105.457524 15.8196721,103.949029 C13.0327869,102.330825 14.1256831,95.3643204 19.4262295,90.3725728 C22.6502732,87.3281553 26.8032787,84.5031553 29.5628415,82.7752427 C30.1912568,82.3912621 31.1202186,81.8427184 32.2404372,81.1570388 C32.431694,81.0473301 32.5409836,80.9924757 32.5409836,80.9924757 C32.7595628,80.8553398 32.9781421,80.7182039 33.1967213,80.581068 C35.136612,87.7121359 33.2786885,93.9929612 28.7431694,98.9572816 Z M60.1639344,77.5092233 C58.6612022,81.184466 55.5191257,90.5919903 53.6065574,90.0708738 C51.9672131,89.6320388 50.9562842,82.5009709 53.2786885,75.4521845 C54.4535519,71.9140777 56.9398907,67.6902913 58.3879781,66.0446602 C60.7377049,63.4116505 63.3333333,62.5339806 63.9617486,63.6036408 C64.7540984,65.0024272 61.0928962,75.2053398 60.1639344,77.5092233 Z M86.0928962,89.961165 C85.4644809,90.2902913 84.863388,90.5097087 84.5901639,90.3451456 C84.3989071,90.2354369 84.863388,89.7966019 84.863388,89.7966019 C84.863388,89.7966019 88.1147541,86.2859223 89.3989071,84.6951456 C90.136612,83.7626214 91.010929,82.665534 91.9398907,81.4313107 C91.9398907,81.5410194 91.9398907,81.6781553 91.9398907,81.7878641 C91.9398907,85.9842233 87.8961749,88.8092233 86.0928962,89.961165 Z M106.092896,85.3808252 C105.628415,85.051699 105.710383,83.9546117 107.26776,80.5262136 C107.868852,79.1822816 109.289617,76.9332524 111.721311,74.7665049 C111.994536,75.6441748 112.185792,76.4944175 112.15847,77.2898058 C112.131148,82.5832524 108.360656,84.5580097 106.092896,85.3808252 Z" id="Shape"></path>
                </g>
                <rect id="Rectangle-Copy-3" fill="#FFFFFF" style="mix-blend-mode: color;" x="0" y="0" width="150" height="150"></rect>
            </g>
        </g>
    </g>
</svg>