<?xml version="1.0" encoding="UTF-8"?>
<svg width="150px" height="150px" viewBox="0 0 150 150" version="1.1" xmlns="http://www.w3.org/2000/svg" xmlns:xlink="http://www.w3.org/1999/xlink">
    <!-- Generator: Sketch 52.4 (67378) - http://www.bohemiancoding.com/sketch -->
    <title>SKETCH</title>
    <desc>Created with Sketch.</desc>
    <g id="Page-1" stroke="none" stroke-width="1" fill="none" fill-rule="evenodd">
        <g id="Greyscale" transform="translate(-658.000000, -55.000000)">
            <g id="SKETCH" transform="translate(658.000000, 55.000000)">
                <g id="sketch" transform="translate(0.000000, 7.000000)">
                    <g id="Base" fill="#FFAE00">
                        <polygon id="Polygon" transform="translate(75.000000, 68.000000) rotate(-180.000000) translate(-75.000000, -68.000000) " points="75 -2.84217094e-14 150 87.3199105 117.510121 131.436242 75 136 32.4898785 131.436242 2.84217094e-14 87.3199105"></polygon>
                    </g>
                    <g id="Bottom-Back" transform="translate(0.000000, 48.491803)" fill="#EC6C00">
                        <polygon id="Polygon" transform="translate(75.000000, 43.754098) rotate(-180.000000) translate(-75.000000, -43.754098) " points="75 -2.84217094e-14 150 87.5081967 2.84217094e-14 87.5081967"></polygon>
                    </g>
                    <g id="Bottom-Mid" transform="translate(30.555556, 48.491803)" fill="#FFAE00">
                        <polygon id="Polygon" transform="translate(44.722222, 43.754098) rotate(-180.000000) translate(-44.722222, -43.754098) " points="44.7222222 -2.84217094e-14 89.4444444 87.5081967 2.84217094e-14 87.5081967"></polygon>
                    </g>
                    <g id="Top-Mid" transform="translate(30.555556, 0.000000)" fill="#FFEFB4">
                        <polygon id="Polygon" transform="translate(44.722222, 24.245902) rotate(-180.000000) translate(-44.722222, -24.245902) " points="44.7222222 48.4918033 89.4444444 8.24296005e-13 0 -1.42108547e-14"></polygon>
                    </g>
                    <g id="Top-Side-Left" transform="translate(0.000000, 4.459016)" fill="#FFAE00">
                        <polygon id="Polygon" transform="translate(16.111111, 22.016393) rotate(-180.000000) translate(-16.111111, -22.016393) " points="7.10542736e-15 44.0327869 16.5628245 21.8645562 32.2222222 8.11308863e-13 1.80685358 0"></polygon>
                    </g>
                    <g id="Top-Side-Right" transform="translate(133.888889, 26.475410) scale(-1, 1) translate(-133.888889, -26.475410) translate(117.777778, 4.459016)" fill="#FFAE00">
                        <polygon id="Polygon" transform="translate(16.111111, 22.016393) rotate(-180.000000) translate(-16.111111, -22.016393) " points="7.10542736e-15 44.0327869 16.5628245 21.8645562 32.2222222 8.11308863e-13 1.80685358 0"></polygon>
                    </g>
                    <g id="Top-Left" transform="translate(30.555556, 0.000000)" fill="#FED305">
                        <polygon id="Polygon" transform="translate(22.222222, 24.245902) rotate(-180.000000) translate(-22.222222, -24.245902) " points="42.3280423 43.9456967 44.4444444 -1.42108547e-14 1.42108547e-14 48.4918033"></polygon>
                    </g>
                    <g id="Top-Right" transform="translate(75.000000, 0.000000)" fill="#FED305">
                        <polygon id="Polygon" transform="translate(22.222222, 24.245902) scale(-1, 1) rotate(-180.000000) translate(-22.222222, -24.245902) " points="42.3280423 43.9456967 44.4444444 -1.42108547e-14 -1.42108547e-14 48.4918033"></polygon>
                    </g>
                </g>
                <rect id="Rectangle-Copy-2" fill="#FFFFFF" fill-rule="nonzero" style="mix-blend-mode: color;" x="0" y="0" width="150" height="150"></rect>
            </g>
        </g>
    </g>
</svg>