<?xml version="1.0" encoding="UTF-8"?>
<svg width="150px" height="150px" viewBox="0 0 150 150" version="1.1" xmlns="http://www.w3.org/2000/svg" xmlns:xlink="http://www.w3.org/1999/xlink">
    <!-- Generator: Sketch 52.4 (67378) - http://www.bohemiancoding.com/sketch -->
    <title>WEBPACK</title>
    <desc>Created with Sketch.</desc>
    <g id="Page-1" stroke="none" stroke-width="1" fill="none" fill-rule="evenodd">
        <g id="Greyscale" transform="translate(-19.000000, -55.000000)">
            <g id="WEBPACK" transform="translate(19.000000, 55.000000)">
                <g id="webpack" transform="translate(9.000000, 0.000000)">
                    <polygon id="Path" fill="#FFFFFF" points="66.5 0 133 37.4957177 133 112.504282 66.5 150 0 112.504282 0 37.4957177"></polygon>
                    <path d="M121.164827,109.253763 L68.7998703,138.69863 L68.7998703,115.77053 L101.427134,97.9261897 L121.164827,109.253763 Z M124.751938,106.029499 L124.751938,44.461408 L105.597795,55.464849 L105.597795,95.0431176 L124.751938,106.029499 Z M11.8351731,109.253763 L64.2001297,138.69863 L64.2001297,115.77053 L31.5557025,97.9261897 L11.8351731,109.253763 Z M8.24806202,106.029499 L8.24806202,44.461408 L27.4022054,55.464849 L27.4022054,95.0431176 L8.24806202,106.029499 Z M10.4964427,40.469462 L64.2001297,10.2739726 L64.2001297,32.4343911 L29.7878918,51.2511282 L29.5132804,51.4046646 L10.4964427,40.469462 Z M122.503557,40.469462 L68.7998703,10.2739726 L68.7998703,32.4343911 L103.212108,51.2340686 L103.48672,51.387605 L122.503557,40.469462 Z" id="Shape" fill="#8ED6FB" fill-rule="nonzero"></path>
                    <path d="M64.197416,110.958904 L31.9612403,93.3933896 L31.9612403,58.6197984 L64.197416,77.0533761 L64.197416,110.958904 Z M68.802584,110.958904 L101.03876,93.4104105 L101.03876,58.6197984 L68.802584,77.0533761 L68.802584,110.958904 Z M34.1435401,54.6028784 L66.5,36.9863014 L98.8564599,54.6028784 L66.5,73.1045395 L34.1435401,54.6028784 Z" id="Shape" fill="#1C78C0" fill-rule="nonzero"></path>
                </g>
                <rect id="Rectangle" fill="#FFFFFF" fill-rule="nonzero" style="mix-blend-mode: color;" x="0" y="0" width="150" height="150"></rect>
            </g>
        </g>
    </g>
</svg>